Rokkitt-Extra-Light.ufo
<glyph name="exclam" format="1">
  <advance width="256"/>
  <unicode hex="0021"/>
  <outline>
    <contour>
      <point x="109" y="347" type="line"/>
      <point x="152" y="347" type="line"/>
      <point x="176" y="783" type="line"/>
      <point x="176" y="1176" type="line"/>
      <point x="83" y="1176" type="line"/>
      <point x="83" y="783" type="line"/>
    </contour>
    <contour>
      <point x="129" y="-14" type="curve" smooth="yes"/>
      <point x="172" y="-14"/>
      <point x="204" y="15"/>
      <point x="204" y="55" type="curve" smooth="yes"/>
      <point x="204" y="93"/>
      <point x="172" y="122"/>
      <point x="129" y="122" type="curve" smooth="yes"/>
      <point x="88" y="122"/>
      <point x="58" y="93"/>
      <point x="58" y="55" type="curve" smooth="yes"/>
      <point x="58" y="15"/>
      <point x="88" y="-14"/>
    </contour>
  </outline>
</glyph>
<glyph name="numbersign" format="1">
  <advance width="1010"/>
  <unicode hex="0023"/>
  <outline>
    <contour>
      <point x="188" y="-3" type="line"/>
      <point x="271" y="-3" type="line"/>
      <point x="306" y="372" type="line"/>
      <point x="649" y="372" type="line"/>
      <point x="610" y="-3" type="line"/>
      <point x="693" y="-3" type="line"/>
      <point x="731" y="372" type="line"/>
      <point x="919" y="372" type="line"/>
      <point x="920" y="436" type="line"/>
      <point x="740" y="436" type="line"/>
      <point x="773" y="775" type="line"/>
      <point x="949" y="775" type="line"/>
      <point x="951" y="838" type="line"/>
      <point x="783" y="838" type="line"/>
      <point x="817" y="1175" type="line"/>
      <point x="735" y="1175" type="line"/>
      <point x="700" y="838" type="line"/>
      <point x="360" y="838" type="line"/>
      <point x="395" y="1175" type="line"/>
      <point x="311" y="1175" type="line"/>
      <point x="277" y="838" type="line"/>
      <point x="96" y="838" type="line"/>
      <point x="95" y="775" type="line"/>
      <point x="267" y="775" type="line"/>
      <point x="235" y="436" type="line"/>
      <point x="65" y="436" type="line"/>
      <point x="63" y="372" type="line"/>
      <point x="224" y="372" type="line"/>
    </contour>
    <contour>
      <point x="316" y="436" type="line"/>
      <point x="350" y="775" type="line"/>
      <point x="690" y="775" type="line"/>
      <point x="657" y="436" type="line"/>
    </contour>
  </outline>
</glyph>
<glyph name="dollar" format="1">
  <advance width="1132"/>
  <unicode hex="0024"/>
  <outline>
    <component base="S" xOffset="-6"/>
    <contour>
      <point x="572" y="-181" type="line"/>
      <point x="611" y="-181" type="line"/>
      <point x="611" y="1329" type="line"/>
      <point x="572" y="1329" type="line"/>
    </contour>
  </outline>
</glyph>
<glyph name="percent" format="1">
  <advance width="1594"/>
  <unicode hex="0025"/>
  <outline>
    <contour>
      <point x="393" y="673" type="curve" smooth="yes"/>
      <point x="258" y="673"/>
      <point x="162" y="770"/>
      <point x="162" y="904" type="curve" smooth="yes"/>
      <point x="162" y="1038"/>
      <point x="258" y="1133"/>
      <point x="393" y="1133" type="curve" smooth="yes"/>
      <point x="529" y="1133"/>
      <point x="626" y="1038"/>
      <point x="626" y="904" type="curve" smooth="yes"/>
      <point x="626" y="770"/>
      <point x="529" y="673"/>
    </contour>
    <contour>
      <point x="393" y="630" type="curve" smooth="yes"/>
      <point x="560" y="630"/>
      <point x="677" y="744"/>
      <point x="677" y="904" type="curve" smooth="yes"/>
      <point x="677" y="1062"/>
      <point x="560" y="1174"/>
      <point x="393" y="1174" type="curve" smooth="yes"/>
      <point x="229" y="1174"/>
      <point x="111" y="1062"/>
      <point x="111" y="904" type="curve" smooth="yes"/>
      <point x="111" y="744"/>
      <point x="229" y="630"/>
    </contour>
    <contour>
      <point x="313" y="-39" type="line"/>
      <point x="1335" y="1199" type="line"/>
      <point x="1304" y="1224" type="line"/>
      <point x="278" y="-8" type="line"/>
    </contour>
    <contour>
      <point x="1216" y="21" type="curve" smooth="yes"/>
      <point x="1081" y="21"/>
      <point x="985" y="117"/>
      <point x="985" y="252" type="curve" smooth="yes"/>
      <point x="985" y="386"/>
      <point x="1081" y="481"/>
      <point x="1216" y="481" type="curve" smooth="yes"/>
      <point x="1352" y="481"/>
      <point x="1449" y="386"/>
      <point x="1449" y="252" type="curve" smooth="yes"/>
      <point x="1449" y="117"/>
      <point x="1352" y="21"/>
    </contour>
    <contour>
      <point x="1216" y="-22" type="curve" smooth="yes"/>
      <point x="1382" y="-22"/>
      <point x="1500" y="92"/>
      <point x="1500" y="252" type="curve" smooth="yes"/>
      <point x="1500" y="409"/>
      <point x="1382" y="522"/>
      <point x="1216" y="522" type="curve" smooth="yes"/>
      <point x="1051" y="522"/>
      <point x="934" y="409"/>
      <point x="934" y="252" type="curve" smooth="yes"/>
      <point x="934" y="92"/>
      <point x="1051" y="-22"/>
    </contour>
  </outline>
</glyph>
<glyph name="ampersand" format="1">
  <advance width="1116"/>
  <unicode hex="0026"/>
  <outline>
    <contour>
      <point x="481" y="-22" type="curve" smooth="yes"/>
      <point x="621" y="-22"/>
      <point x="740" y="26"/>
      <point x="808" y="108" type="curve"/>
      <point x="893" y="0" type="line"/>
      <point x="1067" y="0" type="line"/>
      <point x="1067" y="46" type="line"/>
      <point x="921" y="46" type="line"/>
      <point x="842" y="145" type="line"/>
      <point x="886" y="212"/>
      <point x="931" y="355"/>
      <point x="934" y="411" type="curve"/>
      <point x="1067" y="411" type="line"/>
      <point x="1067" y="456" type="line"/>
      <point x="892" y="456" type="line"/>
      <point x="890" y="388"/>
      <point x="851" y="247"/>
      <point x="814" y="184" type="curve"/>
      <point x="453" y="631" type="line"/>
      <point x="635" y="704"/>
      <point x="747" y="827"/>
      <point x="747" y="967" type="curve" smooth="yes"/>
      <point x="747" y="1100"/>
      <point x="651" y="1178"/>
      <point x="485" y="1178" type="curve" smooth="yes"/>
      <point x="316" y="1178"/>
      <point x="218" y="1101"/>
      <point x="218" y="967" type="curve" smooth="yes"/>
      <point x="218" y="870"/>
      <point x="283" y="768"/>
      <point x="380" y="649" type="curve"/>
      <point x="203" y="591"/>
      <point x="117" y="475"/>
      <point x="117" y="308" type="curve" smooth="yes"/>
      <point x="117" y="97"/>
      <point x="250" y="-22"/>
    </contour>
    <contour>
      <point x="484" y="27" type="curve" smooth="yes"/>
      <point x="287" y="27"/>
      <point x="175" y="128"/>
      <point x="175" y="309" type="curve" smooth="yes"/>
      <point x="175" y="459"/>
      <point x="251" y="563"/>
      <point x="408" y="609" type="curve"/>
      <point x="778" y="146" type="line"/>
      <point x="713" y="68"/>
      <point x="606" y="27"/>
    </contour>
    <contour>
      <point x="429" y="668" type="curve"/>
      <point x="343" y="777"/>
      <point x="269" y="872"/>
      <point x="269" y="967" type="curve" smooth="yes"/>
      <point x="269" y="1071"/>
      <point x="353" y="1132"/>
      <point x="485" y="1132" type="curve" smooth="yes"/>
      <point x="617" y="1132"/>
      <point x="693" y="1072"/>
      <point x="693" y="966" type="curve" smooth="yes"/>
      <point x="693" y="838"/>
      <point x="590" y="729"/>
    </contour>
  </outline>
</glyph>
<glyph name="parenleft" format="1">
  <advance width="510"/>
  <unicode hex="0028"/>
  <outline>
    <contour>
      <point x="478" y="-115" type="curve"/>
      <point x="480" y="-79" type="line"/>
      <point x="266" y="12"/>
      <point x="160" y="271"/>
      <point x="160" y="531" type="curve" smooth="yes"/>
      <point x="160" y="790"/>
      <point x="266" y="1049"/>
      <point x="480" y="1139" type="curve"/>
      <point x="478" y="1174" type="line"/>
      <point x="224" y="1083"/>
      <point x="97" y="805"/>
      <point x="97" y="528" type="curve" smooth="yes"/>
      <point x="97" y="251"/>
      <point x="224" y="-26"/>
    </contour>
  </outline>
</glyph>
<glyph name="parenright" format="1">
  <advance width="510"/>
  <unicode hex="0029"/>
  <outline>
    <contour>
      <point x="88" y="-115" type="line"/>
      <point x="343" y="-26"/>
      <point x="471" y="251"/>
      <point x="471" y="528" type="curve" smooth="yes"/>
      <point x="471" y="805"/>
      <point x="343" y="1083"/>
      <point x="88" y="1174" type="curve"/>
      <point x="86" y="1139" type="line"/>
      <point x="300" y="1049"/>
      <point x="408" y="790"/>
      <point x="408" y="531" type="curve" smooth="yes"/>
      <point x="408" y="271"/>
      <point x="300" y="12"/>
      <point x="86" y="-79" type="curve"/>
    </contour>
  </outline>
</glyph>
<glyph name="asterisk" format="1">
  <advance width="938"/>
  <unicode hex="002A"/>
  <outline>
    <contour>
      <point x="249" y="418" type="line"/>
      <point x="469" y="758" type="line"/>
      <point x="689" y="420" type="line"/>
      <point x="756" y="470" type="line"/>
      <point x="500" y="783" type="line"/>
      <point x="890" y="903" type="line"/>
      <point x="864" y="984" type="line"/>
      <point x="489" y="819" type="line"/>
      <point x="513" y="1223" type="line"/>
      <point x="425" y="1223" type="line"/>
      <point x="450" y="819" type="line"/>
      <point x="74" y="984" type="line"/>
      <point x="47" y="903" type="line"/>
      <point x="438" y="783" type="line"/>
      <point x="180" y="470" type="line"/>
    </contour>
  </outline>
</glyph>
<glyph name="plus" format="1">
  <advance width="725"/>
  <unicode hex="002B"/>
  <outline>
    <contour>
      <point x="340" y="150" type="line"/>
      <point x="389" y="150" type="line"/>
      <point x="389" y="549" type="line"/>
      <point x="727" y="549" type="line"/>
      <point x="727" y="602" type="line"/>
      <point x="389" y="602" type="line"/>
      <point x="389" y="985" type="line"/>
      <point x="340" y="985" type="line"/>
      <point x="340" y="602" type="line"/>
      <point x="-1" y="602" type="line"/>
      <point x="-1" y="549" type="line"/>
      <point x="340" y="549" type="line"/>
    </contour>
  </outline>
</glyph>
<glyph name="comma" format="1">
  <advance width="389"/>
  <unicode hex="002C"/>
  <outline>
    <contour>
      <point x="169" y="-168" type="line"/>
      <point x="263" y="-168"/>
      <point x="278" y="-94"/>
      <point x="278" y="-3" type="curve"/>
      <point x="278" y="1"/>
      <point x="278" y="107"/>
      <point x="278" y="111" type="curve"/>
      <point x="272" y="111"/>
      <point x="183" y="111"/>
      <point x="178" y="111" type="curve"/>
      <point x="178" y="106"/>
      <point x="178" y="5"/>
      <point x="179" y="0" type="curve"/>
      <point x="235" y="0" type="line"/>
      <point x="235" y="-112"/>
      <point x="224" y="-135"/>
      <point x="169" y="-142" type="curve"/>
    </contour>
  </outline>
</glyph>
<glyph name="hyphen" format="1">
  <advance width="886"/>
  <unicode hex="002D"/>
  <outline>
    <contour>
      <point x="183" y="429" type="line"/>
      <point x="701" y="429" type="line"/>
      <point x="701" y="475" type="line"/>
      <point x="183" y="475" type="line"/>
    </contour>
  </outline>
</glyph>
<glyph name="slash" format="1">
  <advance width="426"/>
  <unicode hex="002F"/>
  <outline>
    <contour>
      <point x="-21" y="-18" type="line"/>
      <point x="50" y="-28" type="line"/>
      <point x="437" y="1185" type="line"/>
      <point x="370" y="1196" type="line"/>
    </contour>
  </outline>
</glyph>
<glyph name="zero" format="1">
  <advance width="1091"/>
  <unicode hex="0030"/>
  <outline>
    <contour>
      <point x="545" y="21" type="curve" smooth="yes"/>
      <point x="316" y="19"/>
      <point x="188" y="215"/>
      <point x="188" y="572" type="curve" smooth="yes"/>
      <point x="188" y="931"/>
      <point x="316" y="1129"/>
      <point x="545" y="1129" type="curve" smooth="yes"/>
      <point x="776" y="1129"/>
      <point x="904" y="931"/>
      <point x="904" y="572" type="curve" smooth="yes"/>
      <point x="904" y="217"/>
      <point x="776" y="21"/>
    </contour>
    <contour>
      <point x="545" y="-22" type="curve" smooth="yes"/>
      <point x="814" y="-22"/>
      <point x="961" y="190"/>
      <point x="961" y="572" type="curve" smooth="yes"/>
      <point x="961" y="957"/>
      <point x="814" y="1174"/>
      <point x="545" y="1174" type="curve" smooth="yes"/>
      <point x="278" y="1174"/>
      <point x="131" y="957"/>
      <point x="131" y="572" type="curve" smooth="yes"/>
      <point x="131" y="190"/>
      <point x="278" y="-22"/>
    </contour>
  </outline>
</glyph>
<glyph name="one" format="1">
  <advance width="575"/>
  <unicode hex="0031"/>
  <outline>
    <contour>
      <point x="126" y="0" type="line"/>
      <point x="510" y="0" type="line"/>
      <point x="510" y="45" type="line"/>
      <point x="350" y="45" type="line"/>
      <point x="350" y="1154" type="line"/>
      <point x="131" y="1092" type="line"/>
      <point x="143" y="1048" type="line"/>
      <point x="291" y="1092" type="line"/>
      <point x="291" y="45" type="line"/>
      <point x="126" y="45" type="line"/>
    </contour>
  </outline>
</glyph>
<glyph name="three" format="1">
  <advance width="995"/>
  <unicode hex="0033"/>
  <outline>
    <contour>
      <point x="485" y="-21" type="curve" smooth="yes"/>
      <point x="738" y="-21"/>
      <point x="885" y="110"/>
      <point x="885" y="334" type="curve" smooth="yes"/>
      <point x="885" y="488"/>
      <point x="782" y="582"/>
      <point x="604" y="607" type="curve"/>
      <point x="769" y="631"/>
      <point x="863" y="727"/>
      <point x="863" y="873" type="curve" smooth="yes"/>
      <point x="863" y="1061"/>
      <point x="718" y="1174"/>
      <point x="472" y="1174" type="curve" smooth="yes"/>
      <point x="288" y="1174"/>
      <point x="150" y="1088"/>
      <point x="91" y="942" type="curve"/>
      <point x="162" y="909" type="line"/>
      <point x="211" y="1032"/>
      <point x="322" y="1103"/>
      <point x="470" y="1103" type="curve" smooth="yes"/>
      <point x="663" y="1103"/>
      <point x="776" y="1017"/>
      <point x="776" y="872" type="curve" smooth="yes"/>
      <point x="776" y="724"/>
      <point x="660" y="640"/>
      <point x="416" y="640" type="curve"/>
      <point x="416" y="570" type="line"/>
      <point x="665" y="570"/>
      <point x="792" y="490"/>
      <point x="794" y="332" type="curve" smooth="yes"/>
      <point x="796" y="154"/>
      <point x="682" y="51"/>
      <point x="485" y="51" type="curve" smooth="yes"/>
      <point x="338" y="51"/>
      <point x="226" y="122"/>
      <point x="166" y="250" type="curve"/>
      <point x="97" y="208" type="line"/>
      <point x="155" y="64"/>
      <point x="298" y="-21"/>
    </contour>
  </outline>
</glyph>
<glyph name="four" format="1">
  <advance width="965"/>
  <unicode hex="0034"/>
  <outline>
    <contour>
      <point x="442" y="0" type="line"/>
      <point x="788" y="0" type="line"/>
      <point x="788" y="45" type="line"/>
      <point x="644" y="45" type="line"/>
      <point x="644" y="366" type="line"/>
      <point x="860" y="366" type="line"/>
      <point x="860" y="411" type="line"/>
      <point x="644" y="411" type="line"/>
      <point x="644" y="1152" type="line"/>
      <point x="577" y="1152" type="line"/>
      <point x="105" y="417" type="line"/>
      <point x="115" y="366" type="line"/>
      <point x="586" y="366" type="line"/>
      <point x="586" y="45" type="line"/>
      <point x="442" y="45" type="line"/>
    </contour>
    <contour>
      <point x="165" y="411" type="line"/>
      <point x="586" y="1083" type="line"/>
      <point x="586" y="411" type="line"/>
    </contour>
  </outline>
</glyph>
<glyph name="five" format="1">
  <advance width="973"/>
  <unicode hex="0035"/>
  <outline>
    <contour>
      <point x="479" y="-22" type="curve" smooth="yes"/>
      <point x="751" y="-22"/>
      <point x="903" y="113"/>
      <point x="903" y="353" type="curve" smooth="yes"/>
      <point x="903" y="594"/>
      <point x="759" y="729"/>
      <point x="501" y="729" type="curve" smooth="yes"/>
      <point x="380" y="729"/>
      <point x="279" y="686"/>
      <point x="220" y="609" type="curve"/>
      <point x="222" y="1106" type="line"/>
      <point x="776" y="1106" type="line"/>
      <point x="776" y="911" type="line"/>
      <point x="833" y="911" type="line"/>
      <point x="833" y="1152" type="line"/>
      <point x="165" y="1152" type="line"/>
      <point x="163" y="579" type="line"/>
      <point x="219" y="556" type="line"/>
      <point x="292" y="638"/>
      <point x="404" y="679"/>
      <point x="500" y="679" type="curve" smooth="yes"/>
      <point x="721" y="679"/>
      <point x="844" y="563"/>
      <point x="844" y="352" type="curve" smooth="yes"/>
      <point x="844" y="144"/>
      <point x="714" y="27"/>
      <point x="479" y="27" type="curve" smooth="yes"/>
      <point x="342" y="27"/>
      <point x="223" y="92"/>
      <point x="141" y="210" type="curve"/>
      <point x="106" y="169" type="line"/>
      <point x="198" y="47"/>
      <point x="330" y="-22"/>
    </contour>
  </outline>
</glyph>
<glyph name="seven" format="1">
  <advance width="974"/>
  <unicode hex="0037"/>
  <outline>
    <contour>
      <point x="391" y="0" type="curve"/>
      <point x="486" y="0" type="line"/>
      <point x="486" y="0"/>
      <point x="675" y="638"/>
      <point x="873" y="1089" type="curve"/>
      <point x="873" y="1152" type="line"/>
      <point x="124" y="1152" type="line"/>
      <point x="124" y="843" type="line"/>
      <point x="210" y="843" type="line"/>
      <point x="210" y="1084" type="line"/>
      <point x="772" y="1084" type="line"/>
      <point x="537" y="511"/>
      <point x="391" y="0"/>
    </contour>
  </outline>
</glyph>
<glyph name="colon" format="1">
  <advance width="485"/>
  <unicode hex="003A"/>
  <outline>
    <contour>
      <point x="182" y="214" type="line"/>
      <point x="309" y="214" type="line"/>
      <point x="309" y="345" type="line"/>
      <point x="182" y="345" type="line"/>
    </contour>
    <contour>
      <point x="182" y="697" type="line"/>
      <point x="309" y="697" type="line"/>
      <point x="309" y="829" type="line"/>
      <point x="182" y="829" type="line"/>
    </contour>
  </outline>
</glyph>
<glyph name="less" format="1">
  <advance width="950"/>
  <unicode hex="003C"/>
  <outline>
    <contour>
      <point x="808" y="-40" type="line"/>
      <point x="808" y="46" type="line"/>
      <point x="64" y="576" type="line"/>
      <point x="808" y="1108" type="line"/>
      <point x="808" y="1196" type="line"/>
      <point x="-32" y="600" type="line"/>
      <point x="-32" y="550" type="line"/>
    </contour>
  </outline>
</glyph>
<glyph name="equal" format="1">
  <advance width="863"/>
  <unicode hex="003D"/>
  <outline>
    <contour>
      <point x="171" y="292" type="line"/>
      <point x="694" y="292" type="line"/>
      <point x="694" y="365" type="line"/>
      <point x="171" y="365" type="line"/>
    </contour>
    <contour>
      <point x="171" y="571" type="line"/>
      <point x="694" y="571" type="line"/>
      <point x="694" y="643" type="line"/>
      <point x="171" y="643" type="line"/>
    </contour>
  </outline>
</glyph>
<glyph name="greater" format="1">
  <advance width="951"/>
  <unicode hex="003E"/>
  <outline>
    <contour>
      <point x="145" y="-40" type="line"/>
      <point x="983" y="548" type="line"/>
      <point x="983" y="602" type="line"/>
      <point x="145" y="1196" type="line"/>
      <point x="145" y="1108" type="line"/>
      <point x="888" y="576" type="line"/>
      <point x="145" y="46" type="line"/>
    </contour>
  </outline>
</glyph>
<glyph name="question" format="1">
  <advance width="651"/>
  <unicode hex="003F"/>
  <outline>
    <contour>
      <point x="273" y="285" type="curve"/>
      <point x="305" y="285" type="line"/>
      <point x="365" y="693"/>
      <point x="626" y="617"/>
      <point x="626" y="908" type="curve" smooth="yes"/>
      <point x="626" y="1075"/>
      <point x="513" y="1180"/>
      <point x="320" y="1180" type="curve" smooth="yes"/>
      <point x="148" y="1180"/>
      <point x="28" y="1118"/>
      <point x="12" y="943" type="curve"/>
      <point x="57" y="943" type="line"/>
      <point x="85" y="1087"/>
      <point x="168" y="1134"/>
      <point x="320" y="1134" type="curve" smooth="yes"/>
      <point x="483" y="1134"/>
      <point x="575" y="1047"/>
      <point x="575" y="908" type="curve" smooth="yes"/>
      <point x="575" y="645"/>
      <point x="309" y="715"/>
    </contour>
    <contour>
      <point x="287" y="-21" type="curve" smooth="yes"/>
      <point x="321" y="-21"/>
      <point x="346" y="2"/>
      <point x="346" y="34" type="curve" smooth="yes"/>
      <point x="346" y="64"/>
      <point x="321" y="87"/>
      <point x="287" y="87" type="curve" smooth="yes"/>
      <point x="254" y="87"/>
      <point x="230" y="64"/>
      <point x="230" y="34" type="curve" smooth="yes"/>
      <point x="230" y="2"/>
      <point x="254" y="-21"/>
    </contour>
  </outline>
</glyph>
<glyph name="at" format="1">
  <advance width="1389"/>
  <unicode hex="0040"/>
  <outline>
    <contour>
      <point x="760" y="-29" type="curve" smooth="yes"/>
      <point x="928" y="-29"/>
      <point x="1043" y="8"/>
      <point x="1140" y="78" type="curve"/>
      <point x="1121" y="105" type="line"/>
      <point x="1027" y="42"/>
      <point x="910" y="9"/>
      <point x="760" y="9" type="curve" smooth="yes"/>
      <point x="389" y="9"/>
      <point x="170" y="222"/>
      <point x="170" y="544" type="curve" smooth="yes"/>
      <point x="170" y="877"/>
      <point x="414" y="1126"/>
      <point x="747" y="1126" type="curve" smooth="yes"/>
      <point x="1086" y="1126"/>
      <point x="1240" y="909"/>
      <point x="1240" y="680" type="curve" smooth="yes"/>
      <point x="1240" y="424"/>
      <point x="1074" y="274"/>
      <point x="979" y="283" type="curve" smooth="yes"/>
      <point x="921" y="286"/>
      <point x="908" y="329"/>
      <point x="939" y="475" type="curve" smooth="yes"/>
      <point x="1029" y="881" type="line"/>
      <point x="990" y="881" type="line"/>
      <point x="947" y="686" type="line"/>
      <point x="948" y="821"/>
      <point x="856" y="901"/>
      <point x="733" y="901" type="curve" smooth="yes"/>
      <point x="527" y="901"/>
      <point x="414" y="703"/>
      <point x="414" y="520" type="curve" smooth="yes"/>
      <point x="414" y="340"/>
      <point x="522" y="247"/>
      <point x="651" y="247" type="curve" smooth="yes"/>
      <point x="780" y="247"/>
      <point x="865" y="344"/>
      <point x="907" y="469" type="curve"/>
      <point x="850" y="300"/>
      <point x="907" y="253"/>
      <point x="963" y="247" type="curve" smooth="yes"/>
      <point x="1107" y="232"/>
      <point x="1282" y="422"/>
      <point x="1282" y="680" type="curve" smooth="yes"/>
      <point x="1282" y="922"/>
      <point x="1131" y="1164"/>
      <point x="751" y="1164" type="curve" smooth="yes"/>
      <point x="345" y="1164"/>
      <point x="117" y="849"/>
      <point x="117" y="546" type="curve" smooth="yes"/>
      <point x="117" y="250"/>
      <point x="323" y="-29"/>
    </contour>
    <contour>
      <point x="658" y="284" type="curve" smooth="yes"/>
      <point x="527" y="284"/>
      <point x="463" y="376"/>
      <point x="463" y="519" type="curve" smooth="yes"/>
      <point x="463" y="703"/>
      <point x="566" y="860"/>
      <point x="728" y="860" type="curve" smooth="yes"/>
      <point x="844" y="860"/>
      <point x="919" y="794"/>
      <point x="919" y="652" type="curve" smooth="yes"/>
      <point x="919" y="480"/>
      <point x="815" y="284"/>
    </contour>
  </outline>
</glyph>
<glyph name="A" format="1">
  <advance width="1382"/>
  <unicode hex="0041"/>
  <outline>
    <contour>
      <point x="692" y="1152" type="move" name="top"/>
    </contour>
    <contour>
      <point x="487" y="534" type="line"/>
      <point x="684" y="1081" type="line"/>
      <point x="692" y="1081" type="line"/>
      <point x="889" y="534" type="line"/>
    </contour>
    <contour>
      <point x="78" y="0" type="line"/>
      <point x="473" y="0" type="line"/>
      <point x="473" y="66" type="line"/>
      <point x="321" y="66" type="line"/>
      <point x="467" y="469" type="line"/>
      <point x="908" y="469" type="line"/>
      <point x="1055" y="66" type="line"/>
      <point x="904" y="66" type="line"/>
      <point x="904" y="0" type="line"/>
      <point x="1305" y="0" type="line"/>
      <point x="1305" y="66" type="line"/>
      <point x="1156" y="66" type="line"/>
      <point x="778" y="1086" type="line"/>
      <point x="921" y="1086" type="line"/>
      <point x="921" y="1152" type="line"/>
      <point x="464" y="1152" type="line"/>
      <point x="464" y="1086" type="line"/>
      <point x="604" y="1086" type="line"/>
      <point x="228" y="66" type="line"/>
      <point x="78" y="66" type="line"/>
    </contour>
  </outline>
</glyph>
<glyph name="B" format="1">
  <advance width="1260"/>
  <unicode hex="0042"/>
  <outline>
    <contour>
      <point x="563" y="1152" type="move" name="top"/>
    </contour>
    <contour>
      <point x="734" y="1152" type="curve" smooth="yes"/>
      <point x="108" y="1152" type="line"/>
      <point x="108" y="1086" type="line"/>
      <point x="278" y="1086" type="line"/>
      <point x="278" y="66" type="line"/>
      <point x="108" y="66" type="line"/>
      <point x="108" y="0" type="line"/>
      <point x="811" y="0" type="line" smooth="yes"/>
      <point x="1043" y="0"/>
      <point x="1157" y="141"/>
      <point x="1157" y="319" type="curve" smooth="yes"/>
      <point x="1157" y="452"/>
      <point x="1094" y="577"/>
      <point x="916" y="611" type="curve"/>
      <point x="1024" y="637"/>
      <point x="1090" y="735"/>
      <point x="1090" y="870" type="curve" smooth="yes"/>
      <point x="1090" y="1057"/>
      <point x="965" y="1152"/>
    </contour>
    <contour>
      <point x="713" y="1086" type="line"/>
      <point x="902" y="1086"/>
      <point x="997" y="1022"/>
      <point x="997" y="867" type="curve" smooth="yes"/>
      <point x="997" y="734"/>
      <point x="932" y="640"/>
      <point x="769" y="640" type="curve" smooth="yes"/>
      <point x="374" y="640" type="line"/>
      <point x="374" y="1086" type="line"/>
    </contour>
    <contour>
      <point x="374" y="572" type="line"/>
      <point x="777" y="572" type="line" smooth="yes"/>
      <point x="973" y="572"/>
      <point x="1060" y="464"/>
      <point x="1060" y="322" type="curve" smooth="yes"/>
      <point x="1060" y="166"/>
      <point x="968" y="66"/>
      <point x="798" y="66" type="curve" smooth="yes"/>
      <point x="374" y="66" type="line"/>
    </contour>
  </outline>
</glyph>
<glyph name="C" format="1">
  <advance width="1404"/>
  <unicode hex="0043"/>
  <outline>
    <contour>
      <point x="721" y="1152" type="move" name="top"/>
    </contour>
    <contour>
      <point x="717" y="0" type="move" name="bot"/>
    </contour>
    <contour>
      <point x="713" y="-22" type="curve" smooth="yes"/>
      <point x="938" y="-22"/>
      <point x="1121" y="54"/>
      <point x="1242" y="255" type="curve"/>
      <point x="1202" y="283" type="line"/>
      <point x="1090" y="87"/>
      <point x="896" y="26"/>
      <point x="715" y="26" type="curve" smooth="yes"/>
      <point x="454" y="26"/>
      <point x="181" y="207"/>
      <point x="181" y="580" type="curve" smooth="yes"/>
      <point x="181" y="864"/>
      <point x="373" y="1124"/>
      <point x="715" y="1124" type="curve" smooth="yes"/>
      <point x="966" y="1124"/>
      <point x="1093" y="1024"/>
      <point x="1196" y="817" type="curve"/>
      <point x="1240" y="832" type="line"/>
      <point x="1240" y="1152" type="line"/>
      <point x="1183" y="1152" type="line"/>
      <point x="1183" y="917" type="line"/>
      <point x="1094" y="1075"/>
      <point x="967" y="1172"/>
      <point x="714" y="1172" type="curve" smooth="yes"/>
      <point x="358" y="1172"/>
      <point x="119" y="910"/>
      <point x="119" y="581" type="curve" smooth="yes"/>
      <point x="119" y="164"/>
      <point x="434" y="-22"/>
    </contour>
  </outline>
</glyph>
<glyph name="D" format="1">
  <advance width="1420"/>
  <unicode hex="0044"/>
  <outline>
    <contour>
      <point x="632" y="1152" type="move" name="top"/>
    </contour>
    <contour>
      <point x="776" y="1152" type="curve" smooth="yes"/>
      <point x="109" y="1152" type="line"/>
      <point x="109" y="1086" type="line"/>
      <point x="279" y="1086" type="line"/>
      <point x="279" y="66" type="line"/>
      <point x="109" y="66" type="line"/>
      <point x="109" y="0" type="line"/>
      <point x="780" y="0" type="line" smooth="yes"/>
      <point x="1129" y="0"/>
      <point x="1303" y="290"/>
      <point x="1303" y="578" type="curve" smooth="yes"/>
      <point x="1303" y="843"/>
      <point x="1137" y="1152"/>
    </contour>
    <contour>
      <point x="375" y="1086" type="line"/>
      <point x="774" y="1086" type="line" smooth="yes"/>
      <point x="1066" y="1086"/>
      <point x="1206" y="820"/>
      <point x="1206" y="576" type="curve" smooth="yes"/>
      <point x="1206" y="319"/>
      <point x="1067" y="66"/>
      <point x="767" y="66" type="curve" smooth="yes"/>
      <point x="375" y="66" type="line"/>
    </contour>
  </outline>
</glyph>
<glyph name="H" format="1">
  <advance width="1495"/>
  <unicode hex="0048"/>
  <outline>
    <contour>
      <point x="746" y="1152" type="move" name="top"/>
    </contour>
    <contour>
      <point x="746" y="0" type="move" name="bot"/>
    </contour>
    <contour>
      <point x="327" y="560" type="line"/>
      <point x="1169" y="560" type="line"/>
      <point x="1170" y="606" type="line"/>
      <point x="328" y="606" type="line"/>
    </contour>
    <component base="uc_main_stem" xOffset="847"/>
    <component base="uc_main_stem" xOffset="7"/>
  </outline>
</glyph>
<glyph name="M" format="1">
  <advance width="1641"/>
  <unicode hex="004D"/>
  <outline>
    <contour>
      <point x="814" y="1152" type="move" name="top"/>
    </contour>
    <contour>
      <point x="120" y="0" type="line"/>
      <point x="505" y="0" type="line"/>
      <point x="505" y="66" type="line"/>
      <point x="352" y="66" type="line"/>
      <point x="352" y="1040" type="line"/>
      <point x="812" y="86" type="line"/>
      <point x="838" y="86" type="line"/>
      <point x="1280" y="1040" type="line"/>
      <point x="1280" y="66" type="line"/>
      <point x="1125" y="66" type="line"/>
      <point x="1125" y="0" type="line"/>
      <point x="1527" y="0" type="line"/>
      <point x="1527" y="66" type="line"/>
      <point x="1373" y="66" type="line"/>
      <point x="1373" y="1086" type="line"/>
      <point x="1527" y="1086" type="line"/>
      <point x="1527" y="1152" type="line"/>
      <point x="1243" y="1152" type="line"/>
      <point x="833" y="256" type="line"/>
      <point x="399" y="1152" type="line"/>
      <point x="120" y="1152" type="line"/>
      <point x="120" y="1086" type="line"/>
      <point x="274" y="1086" type="line"/>
      <point x="274" y="66" type="line"/>
      <point x="120" y="66" type="line"/>
    </contour>
  </outline>
</glyph>
<glyph name="N" format="1">
  <advance width="1443"/>
  <unicode hex="004E"/>
  <outline>
    <contour>
      <point x="720" y="1152" type="move" name="top"/>
    </contour>
    <contour>
      <point x="714" y="0" type="move" name="bot"/>
    </contour>
    <contour>
      <point x="115" y="0" type="line"/>
      <point x="503" y="0" type="line"/>
      <point x="503" y="66" type="line"/>
      <point x="348" y="66" type="line"/>
      <point x="348" y="1034" type="line"/>
      <point x="1138" y="0" type="line"/>
      <point x="1234" y="0" type="line"/>
      <point x="1234" y="1086" type="line"/>
      <point x="1373" y="1086" type="line"/>
      <point x="1373" y="1152" type="line"/>
      <point x="997" y="1152" type="line"/>
      <point x="997" y="1086" type="line"/>
      <point x="1154" y="1086" type="line"/>
      <point x="1154" y="131" type="line"/>
      <point x="371" y="1152" type="line"/>
      <point x="115" y="1152" type="line"/>
      <point x="115" y="1086" type="line"/>
      <point x="268" y="1086" type="line"/>
      <point x="268" y="66" type="line"/>
      <point x="115" y="66" type="line"/>
    </contour>
  </outline>
</glyph>
<glyph name="O" format="1">
  <advance width="1455"/>
  <unicode hex="004F"/>
  <outline>
    <contour>
      <point x="726" y="1152" type="move" name="top"/>
    </contour>
    <contour>
      <point x="792" y="0" type="move" name="ogonek"/>
    </contour>
    <contour>
      <point x="728" y="26" type="curve" smooth="yes"/>
      <point x="353" y="26"/>
      <point x="186" y="302"/>
      <point x="186" y="572" type="curve" smooth="yes"/>
      <point x="186" y="831"/>
      <point x="357" y="1126"/>
      <point x="728" y="1126" type="curve" smooth="yes"/>
      <point x="1094" y="1126"/>
      <point x="1270" y="831"/>
      <point x="1270" y="572" type="curve" smooth="yes"/>
      <point x="1270" y="311"/>
      <point x="1094" y="26"/>
    </contour>
    <contour>
      <point x="728" y="-22" type="curve" smooth="yes"/>
      <point x="1141" y="-22"/>
      <point x="1331" y="283"/>
      <point x="1331" y="572" type="curve" smooth="yes"/>
      <point x="1331" y="858"/>
      <point x="1138" y="1174"/>
      <point x="728" y="1174" type="curve" smooth="yes"/>
      <point x="318" y="1174"/>
      <point x="124" y="859"/>
      <point x="124" y="572" type="curve" smooth="yes"/>
      <point x="124" y="285"/>
      <point x="314" y="-23"/>
    </contour>
  </outline>
</glyph>
<glyph name="P" format="1">
  <advance width="1194"/>
  <unicode hex="0050"/>
  <outline>
    <contour>
      <point x="644" y="1152" type="move" name="top"/>
    </contour>
    <contour>
      <point x="108" y="0" type="line"/>
      <point x="544" y="0" type="line"/>
      <point x="544" y="66" type="line"/>
      <point x="374" y="66" type="line"/>
      <point x="374" y="1086" type="line"/>
      <point x="717" y="1086" type="line" smooth="yes"/>
      <point x="883" y="1086"/>
      <point x="979" y="996"/>
      <point x="979" y="838" type="curve" smooth="yes"/>
      <point x="979" y="659"/>
      <point x="881" y="556"/>
      <point x="709" y="556" type="curve" smooth="yes"/>
      <point x="465" y="556" type="line"/>
      <point x="464" y="490" type="line"/>
      <point x="711" y="490" type="line" smooth="yes"/>
      <point x="946" y="490"/>
      <point x="1077" y="618"/>
      <point x="1077" y="841" type="curve" smooth="yes"/>
      <point x="1077" y="1040"/>
      <point x="945" y="1152"/>
      <point x="709" y="1152" type="curve" smooth="yes"/>
      <point x="108" y="1152" type="line"/>
      <point x="108" y="1086" type="line"/>
      <point x="278" y="1086" type="line"/>
      <point x="278" y="66" type="line"/>
      <point x="108" y="66" type="line"/>
    </contour>
  </outline>
</glyph>
<glyph name="Q" format="1">
  <advance width="1439"/>
  <unicode hex="0051"/>
  <outline>
    <contour>
      <point x="1160" y="-186" type="curve"/>
      <point x="1150" y="-146" type="line"/>
      <point x="1106.15" y="-159.995"/>
      <point x="1069.26" y="-166.427"/>
      <point x="1036.56" y="-166.427" type="curve" smooth="yes"/>
      <point x="937.419" y="-166.427"/>
      <point x="876.739" y="-107.302"/>
      <point x="777.083" y="-20.5205" type="curve"/>
      <point x="1156.08" y="2.6783"/>
      <point x="1331" y="294.704"/>
      <point x="1331" y="572" type="curve" smooth="yes"/>
      <point x="1331" y="858"/>
      <point x="1138" y="1174"/>
      <point x="728" y="1174" type="curve" smooth="yes"/>
      <point x="318" y="1174"/>
      <point x="124" y="859"/>
      <point x="124" y="572" type="curve" smooth="yes"/>
      <point x="124" y="288.227"/>
      <point x="309.751" y="-16.0767"/>
      <point x="714.12" y="-21.917" type="curve"/>
      <point x="841.965" y="-134.223"/>
      <point x="916.389" y="-209.321"/>
      <point x="1033.84" y="-209.321" type="curve" smooth="yes"/>
      <point x="1070.67" y="-209.321"/>
      <point x="1111.73" y="-201.937"/>
    </contour>
    <contour>
      <point x="728" y="26" type="curve" smooth="yes"/>
      <point x="352" y="26"/>
      <point x="186" y="301"/>
      <point x="186" y="572" type="curve" smooth="yes"/>
      <point x="186" y="832"/>
      <point x="356" y="1126"/>
      <point x="728" y="1126" type="curve" smooth="yes"/>
      <point x="1095" y="1126"/>
      <point x="1270" y="832"/>
      <point x="1270" y="572" type="curve" smooth="yes"/>
      <point x="1270" y="310"/>
      <point x="1095" y="26"/>
    </contour>
  </outline>
</glyph>
<glyph name="R" format="1">
  <advance width="1292"/>
  <unicode hex="0052"/>
  <outline>
    <contour>
      <point x="649" y="1152" type="move" name="top"/>
    </contour>
    <contour>
      <point x="711" y="0" type="move" name="bot"/>
    </contour>
    <contour>
      <point x="990" y="0" type="line"/>
      <point x="1200" y="0" type="line"/>
      <point x="1200" y="45" type="line"/>
      <point x="1031" y="45" type="line"/>
      <point x="721" y="540" type="line"/>
      <point x="996" y="545"/>
      <point x="1078" y="697"/>
      <point x="1078" y="846" type="curve" smooth="yes"/>
      <point x="1078" y="997"/>
      <point x="985" y="1152"/>
      <point x="749" y="1152" type="curve" smooth="yes"/>
      <point x="327" y="1152" type="line"/>
      <point x="327" y="1107" type="line"/>
      <point x="753" y="1107" type="line" smooth="yes"/>
      <point x="953" y="1107"/>
      <point x="1018" y="971"/>
      <point x="1018" y="846" type="curve" smooth="yes"/>
      <point x="1018" y="730"/>
      <point x="961" y="583"/>
      <point x="696" y="583" type="curve" smooth="yes"/>
      <point x="426" y="583" type="line"/>
      <point x="426" y="538" type="line"/>
      <point x="655" y="538" type="line"/>
    </contour>
    <component base="uc_main_stem" xOffset="7"/>
  </outline>
</glyph>
<glyph name="S" format="1">
  <advance width="1112"/>
  <unicode hex="0053"/>
  <outline>
    <contour>
      <point x="573" y="1152" type="move" name="top"/>
    </contour>
    <contour>
      <point x="628" y="0" type="move" name="bot"/>
    </contour>
    <contour>
      <point x="625" y="-21" type="curve" smooth="yes"/>
      <point x="928" y="-21"/>
      <point x="1014" y="170"/>
      <point x="1014" y="300" type="curve" smooth="yes"/>
      <point x="1014" y="566"/>
      <point x="824" y="597"/>
      <point x="601" y="624" type="curve" smooth="yes"/>
      <point x="406" y="647"/>
      <point x="251" y="675"/>
      <point x="251" y="860" type="curve" smooth="yes"/>
      <point x="251" y="997"/>
      <point x="343" y="1103"/>
      <point x="560" y="1103" type="curve" smooth="yes"/>
      <point x="730" y="1103"/>
      <point x="848" y="1029"/>
      <point x="866" y="947" type="curve" smooth="yes"/>
      <point x="865" y="839" type="line"/>
      <point x="947" y="839" type="line"/>
      <point x="947" y="1154" type="line"/>
      <point x="865" y="1154" type="line"/>
      <point x="865" y="1051" type="line"/>
      <point x="811" y="1132"/>
      <point x="661" y="1174"/>
      <point x="551" y="1174" type="curve" smooth="yes"/>
      <point x="334" y="1174"/>
      <point x="163" y="1073"/>
      <point x="163" y="859" type="curve" smooth="yes"/>
      <point x="163" y="604"/>
      <point x="371" y="567"/>
      <point x="586" y="545" type="curve" smooth="yes"/>
      <point x="795" y="524"/>
      <point x="922" y="487"/>
      <point x="922" y="302" type="curve" smooth="yes"/>
      <point x="922" y="173"/>
      <point x="843" y="50"/>
      <point x="622" y="50" type="curve" smooth="yes"/>
      <point x="410" y="50"/>
      <point x="288" y="117"/>
      <point x="248" y="242" type="curve"/>
      <point x="248" y="388" type="line"/>
      <point x="166" y="388" type="line"/>
      <point x="166" y="-1" type="line"/>
      <point x="248" y="-1" type="line"/>
      <point x="248" y="135" type="line"/>
      <point x="307" y="25"/>
      <point x="446" y="-21"/>
    </contour>
  </outline>
</glyph>
<glyph name="T" format="1">
  <advance width="1146"/>
  <unicode hex="0054"/>
  <outline>
    <contour>
      <point x="568" y="1152" type="move" name="top"/>
    </contour>
    <contour>
      <point x="568" y="0" type="move" name="bot"/>
    </contour>
    <contour>
      <point x="571" y="677" type="move" name="mid"/>
    </contour>
    <contour>
      <point x="52" y="766" type="line"/>
      <point x="128" y="766" type="line"/>
      <point x="128" y="1086" type="line"/>
      <point x="521" y="1086" type="line"/>
      <point x="521" y="66" type="line"/>
      <point x="351" y="66" type="line"/>
      <point x="351" y="0" type="line"/>
      <point x="787" y="0" type="line"/>
      <point x="787" y="66" type="line"/>
      <point x="617" y="66" type="line"/>
      <point x="617" y="1086" type="line"/>
      <point x="1016" y="1086" type="line"/>
      <point x="1016" y="766" type="line"/>
      <point x="1095" y="766" type="line"/>
      <point x="1095" y="1152" type="line"/>
      <point x="52" y="1152" type="line"/>
    </contour>
  </outline>
</glyph>
<glyph name="U" format="1">
  <advance width="1453"/>
  <unicode hex="0055"/>
  <outline>
    <contour>
      <point x="735" y="1152" type="move" name="top"/>
    </contour>
    <contour>
      <point x="722" y="-21" type="curve" smooth="yes"/>
      <point x="1024" y="-21"/>
      <point x="1237" y="129"/>
      <point x="1237" y="384" type="curve" smooth="yes"/>
      <point x="1237" y="1086" type="line"/>
      <point x="1394" y="1086" type="line"/>
      <point x="1394" y="1152" type="line"/>
      <point x="999" y="1152" type="line"/>
      <point x="999" y="1086" type="line"/>
      <point x="1150" y="1086" type="line"/>
      <point x="1150" y="381" type="line" smooth="yes"/>
      <point x="1150" y="181"/>
      <point x="981" y="52"/>
      <point x="724" y="52" type="curve" smooth="yes"/>
      <point x="482" y="52"/>
      <point x="325" y="183"/>
      <point x="325" y="382" type="curve" smooth="yes"/>
      <point x="325" y="1086" type="line"/>
      <point x="477" y="1086" type="line"/>
      <point x="477" y="1152" type="line"/>
      <point x="76" y="1152" type="line"/>
      <point x="76" y="1086" type="line"/>
      <point x="228" y="1086" type="line"/>
      <point x="228" y="390" type="line" smooth="yes"/>
      <point x="228" y="149"/>
      <point x="406" y="-21"/>
    </contour>
  </outline>
</glyph>
<glyph name="W" format="1">
  <advance width="1931"/>
  <unicode hex="0057"/>
  <outline>
    <contour>
      <point x="974" y="1152" type="move" name="top"/>
    </contour>
    <contour>
      <point x="563" y="0" type="line"/>
      <point x="655" y="0" type="line"/>
      <point x="968" y="947" type="line"/>
      <point x="1280" y="0" type="line"/>
      <point x="1371" y="0" type="line"/>
      <point x="1722" y="1086" type="line"/>
      <point x="1867" y="1086" type="line"/>
      <point x="1867" y="1152" type="line"/>
      <point x="1482" y="1152" type="line"/>
      <point x="1482" y="1086" type="line"/>
      <point x="1635" y="1086" type="line"/>
      <point x="1329" y="123" type="line"/>
      <point x="1008" y="1107" type="line"/>
      <point x="936" y="1107" type="line"/>
      <point x="613" y="123" type="line"/>
      <point x="301" y="1086" type="line"/>
      <point x="458" y="1086" type="line"/>
      <point x="458" y="1152" type="line"/>
      <point x="64" y="1152" type="line"/>
      <point x="64" y="1086" type="line"/>
      <point x="204" y="1086" type="line"/>
    </contour>
  </outline>
</glyph>
<glyph name="X" format="1">
  <advance width="1295"/>
  <unicode hex="0058"/>
  <outline>
    <contour>
      <point x="110" y="0" type="line"/>
      <point x="467" y="0" type="line"/>
      <point x="467" y="44" type="line"/>
      <point x="318" y="44" type="line"/>
      <point x="647" y="547" type="line"/>
      <point x="985" y="44" type="line"/>
      <point x="831" y="44" type="line"/>
      <point x="831" y="0" type="line"/>
      <point x="1189" y="0" type="line"/>
      <point x="1189" y="44" type="line"/>
      <point x="1040" y="44" type="line"/>
      <point x="678" y="586" type="line"/>
      <point x="1021" y="1108" type="line"/>
      <point x="1169" y="1108" type="line"/>
      <point x="1169" y="1152" type="line"/>
      <point x="807" y="1152" type="line"/>
      <point x="807" y="1108" type="line"/>
      <point x="958" y="1108" type="line"/>
      <point x="645" y="636" type="line"/>
      <point x="328" y="1108" type="line"/>
      <point x="480" y="1108" type="line"/>
      <point x="480" y="1152" type="line"/>
      <point x="122" y="1152" type="line"/>
      <point x="122" y="1108" type="line"/>
      <point x="272" y="1108" type="line"/>
      <point x="615" y="596" type="line"/>
      <point x="249" y="44" type="line"/>
      <point x="110" y="44" type="line"/>
    </contour>
  </outline>
</glyph>
<glyph name="Y" format="1">
  <advance width="1272"/>
  <unicode hex="0059"/>
  <outline>
    <contour>
      <point x="644" y="1152" type="move" name="top"/>
    </contour>
    <contour>
      <point x="421" y="0" type="line"/>
      <point x="854" y="0" type="line"/>
      <point x="854" y="66" type="line"/>
      <point x="685" y="66" type="line"/>
      <point x="685" y="474" type="line"/>
      <point x="1095" y="1086" type="line"/>
      <point x="1249" y="1086" type="line"/>
      <point x="1249" y="1152" type="line"/>
      <point x="846" y="1152" type="line"/>
      <point x="846" y="1086" type="line"/>
      <point x="1002" y="1086" type="line"/>
      <point x="643" y="545" type="line"/>
      <point x="279" y="1086" type="line"/>
      <point x="428" y="1086" type="line"/>
      <point x="428" y="1152" type="line"/>
      <point x="19" y="1152" type="line"/>
      <point x="19" y="1086" type="line"/>
      <point x="175" y="1086" type="line"/>
      <point x="588" y="474" type="line"/>
      <point x="588" y="66" type="line"/>
      <point x="421" y="66" type="line"/>
    </contour>
  </outline>
</glyph>
<glyph name="Z" format="1">
  <advance width="1232"/>
  <unicode hex="005A"/>
  <outline>
    <contour>
      <point x="645" y="1152" type="move" name="top"/>
    </contour>
    <contour>
      <point x="141" y="0" type="line"/>
      <point x="1088" y="0" type="line"/>
      <point x="1088" y="365" type="line"/>
      <point x="1036" y="365" type="line"/>
      <point x="1036" y="45" type="line"/>
      <point x="210" y="45" type="line"/>
      <point x="1061" y="1107" type="line"/>
      <point x="1061" y="1152" type="line"/>
      <point x="169" y="1152" type="line"/>
      <point x="169" y="803" type="line"/>
      <point x="221" y="803" type="line"/>
      <point x="221" y="1107" type="line"/>
      <point x="991" y="1107" type="line"/>
      <point x="141" y="48" type="line"/>
    </contour>
  </outline>
</glyph>
<glyph name="backslash" format="1">
  <advance width="344"/>
  <unicode hex="005C"/>
  <outline>
    <contour>
      <point x="303" y="-24" type="line"/>
      <point x="363" y="-24" type="line"/>
      <point x="25" y="1177" type="line"/>
      <point x="-30" y="1177" type="line"/>
    </contour>
  </outline>
</glyph>
<glyph name="bracketright" format="1">
  <advance width="353"/>
  <unicode hex="005D"/>
  <outline>
    <contour>
      <point x="2" y="-134" type="line"/>
      <point x="186" y="-134" type="line"/>
      <point x="186" y="1197" type="line"/>
      <point x="2" y="1197" type="line"/>
      <point x="2" y="1149" type="line"/>
      <point x="120" y="1149" type="line"/>
      <point x="120" y="-84" type="line"/>
      <point x="2" y="-84" type="line"/>
    </contour>
  </outline>
</glyph>
<glyph name="underscore" format="1">
  <advance width="815"/>
  <unicode hex="005F"/>
  <outline>
    <contour>
      <point x="61" y="-129" type="line"/>
      <point x="754" y="-129" type="line"/>
      <point x="754" y="-86" type="line"/>
      <point x="61" y="-86" type="line"/>
    </contour>
  </outline>
</glyph>
<glyph name="c" format="1">
  <advance width="957"/>
  <unicode hex="0063"/>
  <outline>
    <contour>
      <point x="485" y="805" type="move" name="top"/>
    </contour>
    <contour>
      <point x="446" y="0" type="move" name="bot"/>
    </contour>
    <contour>
      <point x="477" y="-22" type="curve" smooth="yes"/>
      <point x="622" y="-22"/>
      <point x="725" y="23"/>
      <point x="816" y="120" type="curve"/>
      <point x="808" y="167" type="line"/>
      <point x="711" y="68"/>
      <point x="620" y="25"/>
      <point x="481" y="25" type="curve" smooth="yes"/>
      <point x="270" y="23"/>
      <point x="120" y="182"/>
      <point x="120" y="404" type="curve" smooth="yes"/>
      <point x="120" y="624"/>
      <point x="273" y="779"/>
      <point x="489" y="780" type="curve" smooth="yes"/>
      <point x="631" y="781"/>
      <point x="744" y="694"/>
      <point x="763" y="570" type="curve"/>
      <point x="812" y="570" type="line"/>
      <point x="812" y="805" type="line"/>
      <point x="756" y="805" type="line"/>
      <point x="755" y="697" type="line"/>
      <point x="715" y="772"/>
      <point x="603" y="826"/>
      <point x="488" y="826" type="curve" smooth="yes"/>
      <point x="239" y="826"/>
      <point x="62" y="652"/>
      <point x="62" y="405" type="curve" smooth="yes"/>
      <point x="62" y="155"/>
      <point x="234" y="-22"/>
    </contour>
  </outline>
</glyph>
<glyph name="d" format="1">
  <advance width="1028"/>
  <unicode hex="0064"/>
  <outline>
    <contour>
      <point x="431" y="804" type="move" name="top"/>
    </contour>
    <contour>
      <point x="888" y="804" type="move" name="caron.alt"/>
    </contour>
    <contour>
      <point x="808" y="953" type="move" name="mid"/>
    </contour>
    <contour>
      <point x="764" y="0" type="line"/>
      <point x="989" y="0" type="line"/>
      <point x="989" y="66" type="line"/>
      <point x="855" y="66" type="line"/>
      <point x="855" y="1174" type="line"/>
      <point x="627" y="1174" type="line"/>
      <point x="627" y="1108" type="line"/>
      <point x="764" y="1108" type="line"/>
      <point x="764" y="723" type="line"/>
      <point x="680" y="785"/>
      <point x="564" y="826"/>
      <point x="459" y="826" type="curve" smooth="yes"/>
      <point x="233" y="826"/>
      <point x="61" y="662"/>
      <point x="61" y="403" type="curve" smooth="yes"/>
      <point x="61" y="146"/>
      <point x="244" y="-22"/>
      <point x="481" y="-22" type="curve" smooth="yes"/>
      <point x="578" y="-22"/>
      <point x="686" y="17"/>
      <point x="764" y="79" type="curve"/>
    </contour>
    <contour>
      <point x="764" y="658" type="curve"/>
      <point x="764" y="146" type="line"/>
      <point x="688" y="86"/>
      <point x="584" y="47"/>
      <point x="495" y="47" type="curve" smooth="yes"/>
      <point x="297" y="47"/>
      <point x="152" y="184"/>
      <point x="152" y="395" type="curve" smooth="yes"/>
      <point x="152" y="615"/>
      <point x="286" y="757"/>
      <point x="472" y="757" type="curve" smooth="yes"/>
      <point x="569" y="757"/>
      <point x="681" y="718"/>
    </contour>
  </outline>
</glyph>
<glyph name="e" format="1">
  <advance width="962"/>
  <unicode hex="0065"/>
  <outline>
    <contour>
      <point x="486" y="804" type="move" name="top"/>
    </contour>
    <contour>
      <point x="495" y="0" type="move" name="bot"/>
    </contour>
    <contour>
      <point x="151" y="441" type="line"/>
      <point x="161" y="634"/>
      <point x="301" y="759"/>
      <point x="471" y="759" type="curve" smooth="yes"/>
      <point x="623" y="759"/>
      <point x="758" y="654"/>
      <point x="778" y="441" type="curve"/>
    </contour>
    <contour>
      <point x="489" y="-21" type="curve" smooth="yes"/>
      <point x="621" y="-21"/>
      <point x="755" y="33"/>
      <point x="848" y="129" type="curve"/>
      <point x="817" y="190" type="line"/>
      <point x="745" y="110"/>
      <point x="617" y="48"/>
      <point x="491" y="48" type="curve" smooth="yes"/>
      <point x="323" y="48"/>
      <point x="161" y="166"/>
      <point x="151" y="382" type="curve"/>
      <point x="865" y="382" type="line"/>
      <point x="860" y="693"/>
      <point x="664" y="826"/>
      <point x="471" y="826" type="curve" smooth="yes"/>
      <point x="256" y="826"/>
      <point x="58" y="676"/>
      <point x="58" y="402" type="curve" smooth="yes"/>
      <point x="58" y="140"/>
      <point x="258" y="-21"/>
    </contour>
  </outline>
</glyph>
<glyph name="g" format="1">
  <advance width="1018"/>
  <unicode hex="0067"/>
  <outline>
    <contour>
      <point x="489" y="804" type="move" name="top"/>
    </contour>
    <contour>
      <point x="478" y="-376" type="curve" smooth="yes"/>
      <point x="711" y="-376"/>
      <point x="855" y="-264"/>
      <point x="855" y="-17" type="curve" smooth="yes"/>
      <point x="855" y="759" type="line"/>
      <point x="991" y="759" type="line"/>
      <point x="991" y="804" type="line"/>
      <point x="795" y="804" type="line"/>
      <point x="795" y="680" type="line"/>
      <point x="795" y="-31" type="line" smooth="yes"/>
      <point x="795" y="-216"/>
      <point x="693" y="-329"/>
      <point x="480" y="-329" type="curve" smooth="yes"/>
      <point x="404" y="-329"/>
      <point x="313" y="-315"/>
      <point x="201" y="-283" type="curve"/>
      <point x="191" y="-329" type="line"/>
      <point x="295" y="-357"/>
      <point x="393" y="-376"/>
    </contour>
    <component base="lc_bowl_left" yScale="0.98" xOffset="-76" yOffset="15"/>
  </outline>
</glyph>
<glyph name="h" format="1">
  <advance width="1008"/>
  <unicode hex="0068"/>
  <outline>
    <contour>
      <point x="549" y="1029" type="move" name="top"/>
    </contour>
    <contour>
      <point x="238" y="951" type="move" name="mid"/>
    </contour>
    <contour>
      <point x="33" y="0" type="line"/>
      <point x="414" y="0" type="line"/>
      <point x="414" y="66" type="line"/>
      <point x="272" y="66" type="line"/>
      <point x="272" y="650" type="line"/>
      <point x="380" y="711"/>
      <point x="489" y="754"/>
      <point x="582" y="754" type="curve" smooth="yes"/>
      <point x="692" y="754"/>
      <point x="762" y="686"/>
      <point x="762" y="572" type="curve" smooth="yes"/>
      <point x="762" y="66" type="line"/>
      <point x="601" y="66" type="line"/>
      <point x="601" y="0" type="line"/>
      <point x="1003" y="0" type="line"/>
      <point x="1003" y="66" type="line"/>
      <point x="851" y="66" type="line"/>
      <point x="851" y="571" type="line" smooth="yes"/>
      <point x="851" y="731"/>
      <point x="747" y="826"/>
      <point x="598" y="826" type="curve" smooth="yes"/>
      <point x="488" y="826"/>
      <point x="385" y="782"/>
      <point x="272" y="714" type="curve"/>
      <point x="272" y="1174" type="line"/>
      <point x="39" y="1174" type="line"/>
      <point x="39" y="1108" type="line"/>
      <point x="182" y="1108" type="line"/>
      <point x="182" y="66" type="line"/>
      <point x="33" y="66" type="line"/>
    </contour>
  </outline>
</glyph>
<glyph name="i" format="1">
  <advance width="575"/>
  <unicode hex="0069"/>
  <outline>
    <contour>
      <point x="304" y="1003" type="curve" smooth="yes"/>
      <point x="347" y="1003"/>
      <point x="379" y="1032"/>
      <point x="379" y="1072" type="curve" smooth="yes"/>
      <point x="379" y="1110"/>
      <point x="347" y="1140"/>
      <point x="304" y="1140" type="curve" smooth="yes"/>
      <point x="263" y="1140"/>
      <point x="232" y="1110"/>
      <point x="232" y="1072" type="curve" smooth="yes"/>
      <point x="232" y="1032"/>
      <point x="263" y="1003"/>
    </contour>
    <contour>
      <point x="107" y="0" type="line"/>
      <point x="529" y="0" type="line"/>
      <point x="529" y="66" type="line"/>
      <point x="367" y="66" type="line"/>
      <point x="367" y="804" type="line"/>
      <point x="110" y="804" type="line"/>
      <point x="110" y="738" type="line"/>
      <point x="278" y="738" type="line"/>
      <point x="278" y="66" type="line"/>
      <point x="107" y="66" type="line"/>
    </contour>
  </outline>
</glyph>
<glyph name="j" format="1">
  <advance width="446"/>
  <unicode hex="006A"/>
  <outline>
    <contour>
      <point x="248" y="1004" type="curve" smooth="yes"/>
      <point x="291" y="1004"/>
      <point x="322" y="1033"/>
      <point x="322" y="1073" type="curve" smooth="yes"/>
      <point x="322" y="1111"/>
      <point x="291" y="1140"/>
      <point x="248" y="1140" type="curve" smooth="yes"/>
      <point x="207" y="1140"/>
      <point x="176" y="1111"/>
      <point x="176" y="1073" type="curve" smooth="yes"/>
      <point x="176" y="1033"/>
      <point x="207" y="1004"/>
    </contour>
    <contour>
      <point x="17" y="-271" type="line"/>
      <point x="97" y="-271" type="line" smooth="yes"/>
      <point x="298" y="-271"/>
      <point x="318" y="-161"/>
      <point x="318" y="-43" type="curve" smooth="yes"/>
      <point x="318" y="-31"/>
      <point x="317" y="208"/>
      <point x="317" y="805" type="curve"/>
      <point x="65" y="805" type="line"/>
      <point x="65" y="741" type="line"/>
      <point x="225" y="741" type="line"/>
      <point x="225" y="165"/>
      <point x="225" y="-45"/>
      <point x="225" y="-51" type="curve" smooth="yes"/>
      <point x="225" y="-153"/>
      <point x="212" y="-201"/>
      <point x="90" y="-201" type="curve" smooth="yes"/>
      <point x="17" y="-201" type="line"/>
    </contour>
  </outline>
</glyph>
<glyph name="m" format="1">
  <advance width="1589"/>
  <unicode hex="006D"/>
  <outline>
    <contour>
      <point x="824" y="804" type="move" name="top"/>
    </contour>
    <contour>
      <point x="39" y="0" type="line"/>
      <point x="461" y="0" type="line"/>
      <point x="461" y="66" type="line"/>
      <point x="299" y="66" type="line"/>
      <point x="299" y="659" type="line"/>
      <point x="412" y="719"/>
      <point x="520" y="754"/>
      <point x="590" y="754" type="curve" smooth="yes"/>
      <point x="703" y="754"/>
      <point x="773" y="686"/>
      <point x="773" y="572" type="curve" smooth="yes"/>
      <point x="773" y="66" type="line"/>
      <point x="612" y="66" type="line"/>
      <point x="612" y="0" type="line"/>
      <point x="1013" y="0" type="line"/>
      <point x="1013" y="66" type="line"/>
      <point x="862" y="66" type="line"/>
      <point x="862" y="571" type="line" smooth="yes"/>
      <point x="862" y="600"/>
      <point x="858" y="626"/>
      <point x="851" y="650" type="curve"/>
      <point x="952" y="716"/>
      <point x="1063" y="754"/>
      <point x="1160" y="754" type="curve"/>
      <point x="1272" y="754"/>
      <point x="1342" y="686"/>
      <point x="1342" y="572" type="curve" smooth="yes"/>
      <point x="1342" y="66" type="line"/>
      <point x="1182" y="66" type="line"/>
      <point x="1182" y="0" type="line"/>
      <point x="1583" y="0" type="line"/>
      <point x="1583" y="66" type="line"/>
      <point x="1432" y="66" type="line"/>
      <point x="1432" y="571" type="line" smooth="yes"/>
      <point x="1432" y="731"/>
      <point x="1328" y="826"/>
      <point x="1180" y="826" type="curve" smooth="yes"/>
      <point x="1052" y="826"/>
      <point x="950" y="778"/>
      <point x="831" y="703" type="curve"/>
      <point x="791" y="783"/>
      <point x="712" y="826"/>
      <point x="610" y="826" type="curve" smooth="yes"/>
      <point x="520" y="826"/>
      <point x="407" y="786"/>
      <point x="299" y="723" type="curve"/>
      <point x="299" y="804" type="line"/>
      <point x="41" y="804" type="line"/>
      <point x="41" y="738" type="line"/>
      <point x="209" y="738" type="line"/>
      <point x="209" y="66" type="line"/>
      <point x="39" y="66" type="line"/>
    </contour>
  </outline>
</glyph>
<glyph name="p" format="1">
  <advance width="1042"/>
  <unicode hex="0070"/>
  <outline>
    <contour>
      <point x="565" y="805" type="move" name="top"/>
    </contour>
    <contour>
      <point x="559" y="-22" type="curve" smooth="yes"/>
      <point x="805" y="-22"/>
      <point x="982" y="141"/>
      <point x="982" y="413" type="curve" smooth="yes"/>
      <point x="982" y="672"/>
      <point x="817" y="826"/>
      <point x="579" y="826" type="curve" smooth="yes"/>
      <point x="478" y="826"/>
      <point x="369" y="786"/>
      <point x="283" y="720" type="curve"/>
      <point x="282" y="804" type="line"/>
      <point x="65" y="804" type="line"/>
      <point x="65" y="738" type="line"/>
      <point x="196" y="738" type="line"/>
      <point x="196" y="-251" type="line"/>
      <point x="54" y="-251" type="line"/>
      <point x="54" y="-317" type="line"/>
      <point x="430" y="-317" type="line"/>
      <point x="430" y="-251" type="line"/>
      <point x="286" y="-251" type="line"/>
      <point x="286" y="83" type="line"/>
      <point x="355" y="20"/>
      <point x="457" y="-22"/>
    </contour>
    <contour>
      <point x="286" y="654" type="line"/>
      <point x="372" y="720"/>
      <point x="480" y="757"/>
      <point x="561" y="757" type="curve" smooth="yes"/>
      <point x="759" y="757"/>
      <point x="891" y="622"/>
      <point x="891" y="401" type="curve" smooth="yes"/>
      <point x="891" y="178"/>
      <point x="753" y="46"/>
      <point x="547" y="46" type="curve" smooth="yes"/>
      <point x="457" y="46"/>
      <point x="360" y="86"/>
      <point x="286" y="153" type="curve"/>
    </contour>
  </outline>
</glyph>
<glyph name="q" format="1">
  <advance width="1065"/>
  <unicode hex="0071"/>
  <outline>
    <contour>
      <point x="629" y="-330" type="line"/>
      <point x="1004" y="-330" type="line"/>
      <point x="1004" y="-262" type="line"/>
      <point x="863" y="-262" type="line"/>
      <point x="863" y="738" type="line"/>
      <point x="998" y="738" type="line"/>
      <point x="998" y="804" type="line"/>
      <point x="778" y="804" type="line"/>
      <point x="774" y="716" type="line"/>
      <point x="688" y="783"/>
      <point x="567" y="826"/>
      <point x="459" y="826" type="curve" smooth="yes"/>
      <point x="232" y="826"/>
      <point x="60" y="662"/>
      <point x="60" y="403" type="curve" smooth="yes"/>
      <point x="60" y="146"/>
      <point x="244" y="-22"/>
      <point x="481" y="-22" type="curve" smooth="yes"/>
      <point x="581" y="-22"/>
      <point x="692" y="19"/>
      <point x="773" y="85" type="curve"/>
      <point x="773" y="-262" type="line"/>
      <point x="629" y="-262" type="line"/>
    </contour>
    <contour>
      <point x="773" y="652" type="curve"/>
      <point x="773" y="152" type="line"/>
      <point x="694" y="88"/>
      <point x="587" y="47"/>
      <point x="494" y="47" type="curve" smooth="yes"/>
      <point x="297" y="47"/>
      <point x="152" y="184"/>
      <point x="152" y="395" type="curve" smooth="yes"/>
      <point x="152" y="615"/>
      <point x="286" y="757"/>
      <point x="472" y="757" type="curve" smooth="yes"/>
      <point x="572" y="757"/>
      <point x="687" y="716"/>
    </contour>
  </outline>
</glyph>
<glyph name="r" format="1">
  <advance width="775"/>
  <unicode hex="0072"/>
  <outline>
    <contour>
      <point x="497" y="805" type="move" name="top"/>
    </contour>
    <contour>
      <point x="328" y="0" type="move" name="bot"/>
    </contour>
    <contour>
      <point x="351" y="462" type="line"/>
      <point x="351" y="659"/>
      <point x="450" y="776"/>
      <point x="559" y="776" type="curve" smooth="yes"/>
      <point x="613" y="776"/>
      <point x="649" y="762"/>
      <point x="692" y="738" type="curve"/>
      <point x="705" y="785" type="line"/>
      <point x="659" y="811"/>
      <point x="613" y="824"/>
      <point x="558" y="824" type="curve" smooth="yes"/>
      <point x="459" y="824"/>
      <point x="358" y="754"/>
      <point x="326" y="548" type="curve"/>
    </contour>
    <component base="lc_xheight_stem" xOffset="16"/>
  </outline>
</glyph>
<glyph name="s" format="1">
  <advance width="905"/>
  <unicode hex="0073"/>
  <outline>
    <contour>
      <point x="449" y="805" type="move" name="top"/>
    </contour>
    <contour>
      <point x="472" y="0" type="move" name="bot"/>
    </contour>
    <contour>
      <point x="488" y="-21" type="curve" smooth="yes"/>
      <point x="645" y="-21"/>
      <point x="801" y="47"/>
      <point x="801" y="202" type="curve" smooth="yes"/>
      <point x="801" y="374"/>
      <point x="685" y="405"/>
      <point x="519" y="443" type="curve" smooth="yes"/>
      <point x="395" y="471" type="line" smooth="yes"/>
      <point x="296" y="493"/>
      <point x="229" y="527"/>
      <point x="229" y="606" type="curve" smooth="yes"/>
      <point x="229" y="712"/>
      <point x="336" y="759"/>
      <point x="444" y="759" type="curve" smooth="yes"/>
      <point x="531" y="759"/>
      <point x="641" y="719"/>
      <point x="684" y="662" type="curve"/>
      <point x="693" y="539" type="line"/>
      <point x="762" y="539" type="line"/>
      <point x="762" y="806" type="line"/>
      <point x="685" y="806" type="line"/>
      <point x="685" y="736" type="line"/>
      <point x="625" y="794"/>
      <point x="523" y="826"/>
      <point x="433" y="826" type="curve" smooth="yes"/>
      <point x="276" y="826"/>
      <point x="141" y="754"/>
      <point x="141" y="603" type="curve" smooth="yes"/>
      <point x="141" y="475"/>
      <point x="229" y="424"/>
      <point x="365" y="394" type="curve" smooth="yes"/>
      <point x="492" y="367" type="line" smooth="yes"/>
      <point x="648" y="334"/>
      <point x="716" y="308"/>
      <point x="716" y="195" type="curve" smooth="yes"/>
      <point x="716" y="101"/>
      <point x="616" y="43"/>
      <point x="480" y="43" type="curve" smooth="yes"/>
      <point x="370" y="43"/>
      <point x="270" y="79"/>
      <point x="210" y="153" type="curve"/>
      <point x="205" y="253" type="line"/>
      <point x="137" y="253" type="line"/>
      <point x="137" y="0" type="line"/>
      <point x="211" y="0" type="line"/>
      <point x="211" y="77" type="line"/>
      <point x="263" y="21"/>
      <point x="371" y="-21"/>
    </contour>
  </outline>
</glyph>
<glyph name="t" format="1">
  <advance width="591"/>
  <unicode hex="0074"/>
  <outline>
    <contour>
      <point x="233" y="1023" type="move" name="top"/>
    </contour>
    <contour>
      <point x="392" y="7" type="move" name="bot"/>
    </contour>
    <contour>
      <point x="431" y="0" type="curve" smooth="yes"/>
      <point x="538" y="0" type="line"/>
      <point x="538" y="66" type="line"/>
      <point x="443" y="66" type="line" smooth="yes"/>
      <point x="324" y="66"/>
      <point x="276" y="109"/>
      <point x="276" y="231" type="curve" smooth="yes"/>
      <point x="276" y="738" type="line"/>
      <point x="504" y="738" type="line"/>
      <point x="505" y="804" type="line"/>
      <point x="276" y="804" type="line"/>
      <point x="276" y="1114" type="line"/>
      <point x="187" y="1082" type="line"/>
      <point x="187" y="804" type="line"/>
      <point x="41" y="804" type="line"/>
      <point x="41" y="738" type="line"/>
      <point x="186" y="738" type="line"/>
      <point x="186" y="226" type="line" smooth="yes"/>
      <point x="186" y="59"/>
      <point x="282" y="0"/>
    </contour>
  </outline>
</glyph>
<glyph name="u" format="1">
  <advance width="1033"/>
  <unicode hex="0075"/>
  <outline>
    <contour>
      <point x="489" y="804" type="move" name="top"/>
    </contour>
    <contour>
      <point x="436" y="-21" type="curve" smooth="yes"/>
      <point x="554" y="-21"/>
      <point x="659" y="27"/>
      <point x="758" y="100" type="curve"/>
      <point x="764" y="0" type="line"/>
      <point x="997" y="0" type="line"/>
      <point x="997" y="65" type="line"/>
      <point x="846" y="65" type="line"/>
      <point x="846" y="804" type="line"/>
      <point x="608" y="804" type="line"/>
      <point x="608" y="738" type="line"/>
      <point x="756" y="738" type="line"/>
      <point x="756" y="168" type="line"/>
      <point x="662" y="98"/>
      <point x="571" y="50"/>
      <point x="450" y="50" type="curve" smooth="yes"/>
      <point x="325" y="50"/>
      <point x="272" y="133"/>
      <point x="272" y="230" type="curve" smooth="yes"/>
      <point x="272" y="804" type="line"/>
      <point x="32" y="804" type="line"/>
      <point x="32" y="738" type="line"/>
      <point x="182" y="738" type="line"/>
      <point x="182" y="223" type="line" smooth="yes"/>
      <point x="182" y="118"/>
      <point x="237" y="-21"/>
    </contour>
  </outline>
</glyph>
<glyph name="x" format="1">
  <advance width="1064"/>
  <unicode hex="0078"/>
  <outline>
    <contour>
      <point x="50" y="0" type="line"/>
      <point x="423" y="0" type="line"/>
      <point x="423" y="66" type="line"/>
      <point x="278" y="66" type="line"/>
      <point x="530" y="368" type="line"/>
      <point x="789" y="66" type="line"/>
      <point x="627" y="66" type="line"/>
      <point x="627" y="0" type="line"/>
      <point x="1021" y="0" type="line"/>
      <point x="1021" y="66" type="line"/>
      <point x="879" y="66" type="line"/>
      <point x="582" y="414" type="line"/>
      <point x="854" y="738" type="line"/>
      <point x="1013" y="738" type="line"/>
      <point x="1013" y="804" type="line"/>
      <point x="622" y="804" type="line"/>
      <point x="622" y="738" type="line"/>
      <point x="769" y="738" type="line"/>
      <point x="537" y="459" type="line"/>
      <point x="300" y="738" type="line"/>
      <point x="447" y="738" type="line"/>
      <point x="447" y="804" type="line"/>
      <point x="67" y="804" type="line"/>
      <point x="67" y="738" type="line"/>
      <point x="209" y="738" type="line"/>
      <point x="485" y="415" type="line"/>
      <point x="190" y="66" type="line"/>
      <point x="50" y="66" type="line"/>
    </contour>
  </outline>
</glyph>
<glyph name="z" format="1">
  <advance width="930"/>
  <unicode hex="007A"/>
  <outline>
    <contour>
      <point x="480" y="804" type="move" name="top"/>
    </contour>
    <contour>
      <point x="131" y="0" type="line"/>
      <point x="797" y="0" type="line"/>
      <point x="797" y="273" type="line"/>
      <point x="723" y="273" type="line"/>
      <point x="723" y="64" type="line"/>
      <point x="235" y="64" type="line"/>
      <point x="784" y="729" type="line"/>
      <point x="784" y="805" type="line"/>
      <point x="151" y="805" type="line"/>
      <point x="151" y="556" type="line"/>
      <point x="226" y="556" type="line"/>
      <point x="226" y="741" type="line"/>
      <point x="687" y="741" type="line"/>
      <point x="131" y="71" type="line"/>
    </contour>
  </outline>
</glyph>
<glyph name="bar" format="1">
  <advance width="395"/>
  <unicode hex="007C"/>
  <outline>
    <contour>
      <point x="164" y="-71" type="line"/>
      <point x="241" y="-71" type="line"/>
      <point x="241" y="1194" type="line"/>
      <point x="164" y="1194" type="line"/>
    </contour>
  </outline>
</glyph>
<glyph name="asciitilde" format="1">
  <advance width="862"/>
  <unicode hex="007E"/>
  <outline>
    <contour>
      <point x="761" y="658" type="line"/>
      <point x="722" y="608"/>
      <point x="679" y="580"/>
      <point x="623" y="580" type="curve" smooth="yes"/>
      <point x="496" y="580"/>
      <point x="389" y="699"/>
      <point x="245" y="699" type="curve" smooth="yes"/>
      <point x="178" y="699"/>
      <point x="119" y="663"/>
      <point x="84" y="608" type="curve"/>
      <point x="98" y="543" type="line"/>
      <point x="139" y="599"/>
      <point x="184" y="625"/>
      <point x="241" y="625" type="curve" smooth="yes"/>
      <point x="368" y="625"/>
      <point x="469" y="504"/>
      <point x="621" y="504" type="curve" smooth="yes"/>
      <point x="690" y="504"/>
      <point x="742" y="541"/>
      <point x="776" y="590" type="curve"/>
    </contour>
  </outline>
</glyph>
<glyph name="cent" format="1">
  <advance width="925"/>
  <unicode hex="00A2"/>
  <outline>
    <contour>
      <point x="343" y="-261" type="line"/>
      <point x="657" y="1056" type="line"/>
      <point x="613" y="1063" type="line"/>
      <point x="300" y="-254" type="line"/>
    </contour>
    <component base="c"/>
  </outline>
</glyph>
<glyph name="currency" format="1">
  <advance width="1113"/>
  <unicode hex="00A4"/>
  <outline>
    <contour>
      <point x="911" y="590" type="line"/>
      <point x="959" y="635" type="line"/>
      <point x="848" y="743" type="line"/>
      <point x="913" y="835"/>
      <point x="947" y="934"/>
      <point x="947" y="1030" type="curve" smooth="yes"/>
      <point x="947" y="1127"/>
      <point x="914" y="1225"/>
      <point x="848" y="1314" type="curve"/>
      <point x="959" y="1422" type="line"/>
      <point x="911" y="1467" type="line"/>
      <point x="811" y="1356" type="line"/>
      <point x="719" y="1406"/>
      <point x="633" y="1432"/>
      <point x="550" y="1432" type="curve" smooth="yes"/>
      <point x="471" y="1432"/>
      <point x="391" y="1407"/>
      <point x="308" y="1358" type="curve"/>
      <point x="208" y="1466" type="line"/>
      <point x="154" y="1422" type="line"/>
      <point x="262" y="1316" type="line"/>
      <point x="192" y="1232"/>
      <point x="157" y="1124"/>
      <point x="157" y="1022" type="curve" smooth="yes"/>
      <point x="157" y="920"/>
      <point x="192" y="817"/>
      <point x="261" y="741" type="curve"/>
      <point x="154" y="635" type="line"/>
      <point x="208" y="591" type="line"/>
      <point x="308" y="698" type="line"/>
      <point x="393" y="648"/>
      <point x="475" y="625"/>
      <point x="554" y="625" type="curve" smooth="yes"/>
      <point x="639" y="625"/>
      <point x="724" y="650"/>
      <point x="812" y="700" type="curve"/>
    </contour>
    <contour>
      <point x="552" y="678" type="curve" smooth="yes"/>
      <point x="387" y="678"/>
      <point x="211" y="794"/>
      <point x="211" y="1029" type="curve" smooth="yes"/>
      <point x="211" y="1263"/>
      <point x="388" y="1379"/>
      <point x="553" y="1379" type="curve" smooth="yes"/>
      <point x="718" y="1379"/>
      <point x="900" y="1269"/>
      <point x="900" y="1029" type="curve" smooth="yes"/>
      <point x="900" y="789"/>
      <point x="720" y="678"/>
    </contour>
  </outline>
</glyph>
<glyph name="section" format="1">
  <advance width="934"/>
  <unicode hex="00A7"/>
  <outline>
    <contour>
      <point x="489" y="-147" type="curve" smooth="yes"/>
      <point x="687" y="-147"/>
      <point x="781" y="-48"/>
      <point x="781" y="102" type="curve" smooth="yes"/>
      <point x="781" y="180"/>
      <point x="757" y="227"/>
      <point x="721" y="265" type="curve"/>
      <point x="791" y="311"/>
      <point x="830" y="389"/>
      <point x="828" y="477" type="curve" smooth="yes"/>
      <point x="826" y="597"/>
      <point x="737" y="656"/>
      <point x="522" y="774" type="curve" smooth="yes"/>
      <point x="358" y="864"/>
      <point x="289" y="891"/>
      <point x="289" y="1016" type="curve" smooth="yes"/>
      <point x="289" y="1122"/>
      <point x="359" y="1193"/>
      <point x="492" y="1193" type="curve" smooth="yes"/>
      <point x="634" y="1193"/>
      <point x="683" y="1105"/>
      <point x="691" y="992" type="curve"/>
      <point x="735" y="992"/>
      <point x="755" y="1015"/>
      <point x="755" y="1053" type="curve" smooth="yes"/>
      <point x="755" y="1145"/>
      <point x="683" y="1241"/>
      <point x="494" y="1241" type="curve" smooth="yes"/>
      <point x="318" y="1241"/>
      <point x="212" y="1146"/>
      <point x="212" y="1010" type="curve" smooth="yes"/>
      <point x="212" y="911"/>
      <point x="253" y="851"/>
      <point x="320" y="804" type="curve"/>
      <point x="240" y="781"/>
      <point x="176" y="718"/>
      <point x="176" y="626" type="curve" smooth="yes"/>
      <point x="176" y="502"/>
      <point x="239" y="447"/>
      <point x="433" y="349" type="curve" smooth="yes"/>
      <point x="675" y="227"/>
      <point x="712" y="194"/>
      <point x="712" y="87" type="curve" smooth="yes"/>
      <point x="712" y="-27"/>
      <point x="647" y="-100"/>
      <point x="496" y="-100" type="curve" smooth="yes"/>
      <point x="354" y="-100"/>
      <point x="271" y="-48"/>
      <point x="268" y="90" type="curve"/>
      <point x="233" y="90"/>
      <point x="204" y="74"/>
      <point x="204" y="25" type="curve" smooth="yes"/>
      <point x="204" y="-80"/>
      <point x="291" y="-147"/>
    </contour>
    <contour>
      <point x="687" y="296" type="curve"/>
      <point x="638" y="332"/>
      <point x="565" y="370"/>
      <point x="482" y="413" type="curve" smooth="yes"/>
      <point x="308" y="503"/>
      <point x="249" y="532"/>
      <point x="249" y="638" type="curve" smooth="yes"/>
      <point x="249" y="701"/>
      <point x="285" y="753"/>
      <point x="352" y="778" type="curve"/>
      <point x="368" y="767"/>
      <point x="478" y="709"/>
      <point x="500" y="698" type="curve" smooth="yes"/>
      <point x="696" y="593"/>
      <point x="754" y="539"/>
      <point x="754" y="455" type="curve" smooth="yes"/>
      <point x="754" y="391"/>
      <point x="737" y="338"/>
    </contour>
  </outline>
</glyph>
<glyph name="copyright" format="1">
  <advance width="1520"/>
  <unicode hex="00A9"/>
  <outline>
    <contour>
      <point x="765" y="191" type="curve" smooth="yes"/>
      <point x="888" y="191"/>
      <point x="1008" y="242"/>
      <point x="1085" y="331" type="curve"/>
      <point x="1056" y="381" type="line"/>
      <point x="978" y="296"/>
      <point x="883" y="250"/>
      <point x="768" y="249" type="curve" smooth="yes"/>
      <point x="596" y="248"/>
      <point x="452" y="385"/>
      <point x="452" y="587" type="curve" smooth="yes"/>
      <point x="452" y="818"/>
      <point x="624" y="921"/>
      <point x="775" y="921" type="curve" smooth="yes"/>
      <point x="914" y="921"/>
      <point x="1003" y="849"/>
      <point x="1016" y="733" type="curve"/>
      <point x="1078" y="733" type="line"/>
      <point x="1078" y="960" type="line"/>
      <point x="1017" y="960" type="line"/>
      <point x="1016" y="866" type="line"/>
      <point x="969" y="945"/>
      <point x="874" y="979"/>
      <point x="769" y="979" type="curve" smooth="yes"/>
      <point x="584" y="979"/>
      <point x="377" y="855"/>
      <point x="377" y="587" type="curve" smooth="yes"/>
      <point x="377" y="349"/>
      <point x="552" y="191"/>
    </contour>
    <contour>
      <point x="759" y="-40" type="curve" smooth="yes"/>
      <point x="1123" y="-40"/>
      <point x="1402" y="228"/>
      <point x="1402" y="585" type="curve" smooth="yes"/>
      <point x="1402" y="941"/>
      <point x="1123" y="1210"/>
      <point x="759" y="1210" type="curve" smooth="yes"/>
      <point x="396" y="1210"/>
      <point x="117" y="941"/>
      <point x="117" y="585" type="curve" smooth="yes"/>
      <point x="117" y="228"/>
      <point x="396" y="-40"/>
    </contour>
    <contour>
      <point x="759" y="21" type="curve" smooth="yes"/>
      <point x="441" y="21"/>
      <point x="196" y="263"/>
      <point x="196" y="584" type="curve" smooth="yes"/>
      <point x="196" y="906"/>
      <point x="441" y="1149"/>
      <point x="759" y="1149" type="curve" smooth="yes"/>
      <point x="1078" y="1149"/>
      <point x="1324" y="906"/>
      <point x="1324" y="584" type="curve" smooth="yes"/>
      <point x="1324" y="265"/>
      <point x="1078" y="21"/>
    </contour>
  </outline>
</glyph>
<glyph name="logicalnot" format="1">
  <advance width="857"/>
  <unicode hex="00AC"/>
  <outline>
    <contour>
      <point x="711" y="307" type="line"/>
      <point x="757" y="307" type="line"/>
      <point x="757" y="661" type="line"/>
      <point x="92" y="661" type="line"/>
      <point x="92" y="615" type="line"/>
      <point x="711" y="615" type="line"/>
    </contour>
  </outline>
</glyph>
<glyph name="uni00AD" format="1">
  <advance width="826"/>
  <unicode hex="00AD"/>
  <outline>
    <contour>
      <point x="159" y="413" type="line"/>
      <point x="667" y="413" type="line"/>
      <point x="667" y="482" type="line"/>
      <point x="159" y="482" type="line"/>
    </contour>
  </outline>
</glyph>
<glyph name="macron" format="1">
  <advance width="338"/>
  <unicode hex="00AF"/>
  <outline>
    <contour>
      <point x="177" y="817" type="move" name="_top"/>
    </contour>
    <contour>
      <point x="177" y="972" type="move" name="_mid"/>
    </contour>
    <contour>
      <point x="-25" y="941" type="line"/>
      <point x="370" y="941" type="line"/>
      <point x="370" y="999" type="line"/>
      <point x="-25" y="999" type="line"/>
    </contour>
  </outline>
</glyph>
<glyph name="twosuperior" format="1">
  <advance width="905"/>
  <unicode hex="00B2"/>
  <outline>
    <contour>
      <point x="196" y="581" type="line"/>
      <point x="196" y="540" type="line"/>
      <point x="715" y="540" type="line"/>
      <point x="714" y="727" type="line"/>
      <point x="670" y="727" type="line"/>
      <point x="671" y="581" type="line"/>
      <point x="259" y="581" type="line"/>
      <point x="533" y="841" type="line" smooth="yes"/>
      <point x="634" y="939"/>
      <point x="694" y="1014"/>
      <point x="694" y="1124" type="curve" smooth="yes"/>
      <point x="694" y="1267"/>
      <point x="584" y="1338"/>
      <point x="443" y="1338" type="curve" smooth="yes"/>
      <point x="270" y="1338"/>
      <point x="188" y="1226"/>
      <point x="188" y="1093" type="curve" smooth="yes"/>
      <point x="188" y="1068"/>
      <point x="191" y="1042"/>
      <point x="197" y="1016" type="curve"/>
      <point x="244" y="1016" type="line"/>
      <point x="238" y="1041"/>
      <point x="235" y="1066"/>
      <point x="235" y="1089" type="curve" smooth="yes"/>
      <point x="235" y="1201"/>
      <point x="304" y="1296"/>
      <point x="443" y="1296" type="curve" smooth="yes"/>
      <point x="564" y="1296"/>
      <point x="644" y="1234"/>
      <point x="645" y="1126" type="curve" smooth="yes"/>
      <point x="645" y="1025"/>
      <point x="603" y="975"/>
      <point x="503" y="878" type="curve" smooth="yes"/>
    </contour>
  </outline>
</glyph>
<glyph name="uni00B3" format="1">
  <advance width="968"/>
  <unicode hex="00B3"/>
  <outline>
    <contour>
      <point x="486" y="527" type="curve" smooth="yes"/>
      <point x="659" y="527"/>
      <point x="771" y="614"/>
      <point x="771" y="749" type="curve" smooth="yes"/>
      <point x="771" y="848"/>
      <point x="703" y="932"/>
      <point x="570" y="948" type="curve"/>
      <point x="683" y="964"/>
      <point x="751" y="1037"/>
      <point x="751" y="1131" type="curve" smooth="yes"/>
      <point x="751" y="1263"/>
      <point x="649" y="1345"/>
      <point x="489" y="1345" type="curve" smooth="yes"/>
      <point x="368" y="1345"/>
      <point x="266" y="1288"/>
      <point x="221" y="1198" type="curve"/>
      <point x="275" y="1169" type="line"/>
      <point x="311" y="1243"/>
      <point x="391" y="1288"/>
      <point x="488" y="1288" type="curve" smooth="yes"/>
      <point x="605" y="1288"/>
      <point x="680" y="1225"/>
      <point x="680" y="1130" type="curve" smooth="yes"/>
      <point x="680" y="1034"/>
      <point x="600" y="975"/>
      <point x="446" y="975" type="curve"/>
      <point x="448" y="918" type="line"/>
      <point x="621" y="918"/>
      <point x="696" y="857"/>
      <point x="698" y="752" type="curve" smooth="yes"/>
      <point x="699" y="649"/>
      <point x="617" y="585"/>
      <point x="486" y="585" type="curve" smooth="yes"/>
      <point x="383" y="585"/>
      <point x="301" y="633"/>
      <point x="266" y="712" type="curve"/>
      <point x="211" y="678" type="line"/>
      <point x="249" y="586"/>
      <point x="354" y="527"/>
    </contour>
  </outline>
</glyph>
<glyph name="acute" format="1">
  <advance width="174"/>
  <unicode hex="00B4"/>
  <outline>
    <contour>
      <point x="29" y="804" type="move" name="_top"/>
    </contour>
    <contour>
      <point x="109" y="1241" type="line"/>
      <point x="18" y="989" type="line"/>
      <point x="50" y="989" type="line"/>
      <point x="169" y="1241" type="line"/>
    </contour>
  </outline>
</glyph>
<glyph name="cedilla" format="1">
  <advance width="557"/>
  <unicode hex="00B8"/>
  <outline>
    <contour>
      <point x="286" y="0" type="move" name="_bot"/>
    </contour>
    <contour>
      <point x="278" y="-311" type="curve" smooth="yes"/>
      <point x="345" y="-311"/>
      <point x="402" y="-284"/>
      <point x="402" y="-214" type="curve" smooth="yes"/>
      <point x="402" y="-163"/>
      <point x="365" y="-115"/>
      <point x="267" y="-111" type="curve"/>
      <point x="303" y="6" type="line"/>
      <point x="257" y="6" type="line"/>
      <point x="198" y="-151" type="line"/>
      <point x="286" y="-153"/>
      <point x="317" y="-175"/>
      <point x="317" y="-205" type="curve" smooth="yes"/>
      <point x="317" y="-241"/>
      <point x="288" y="-258"/>
      <point x="241" y="-258" type="curve" smooth="yes"/>
      <point x="214" y="-258"/>
      <point x="182" y="-252"/>
      <point x="147" y="-241" type="curve"/>
      <point x="147" y="-281" type="line"/>
      <point x="188" y="-300"/>
      <point x="235" y="-311"/>
    </contour>
  </outline>
</glyph>
<glyph name="uni00B9" format="1">
  <advance width="665"/>
  <unicode hex="00B9"/>
  <outline>
    <contour>
      <point x="166" y="544" type="line"/>
      <point x="499" y="544" type="line"/>
      <point x="499" y="598" type="line"/>
      <point x="371" y="598" type="line"/>
      <point x="371" y="1320" type="line"/>
      <point x="171" y="1284" type="line"/>
      <point x="179" y="1230" type="line"/>
      <point x="298" y="1251" type="line"/>
      <point x="298" y="598" type="line"/>
      <point x="166" y="598" type="line"/>
    </contour>
  </outline>
</glyph>
<glyph name="onequarter" format="1">
  <advance width="1465"/>
  <unicode hex="00BC"/>
  <outline>
    <contour>
      <point x="1129" y="0" type="line"/>
      <point x="1403" y="0" type="line"/>
      <point x="1403" y="41" type="line"/>
      <point x="1296" y="41" type="line"/>
      <point x="1296" y="260" type="line"/>
      <point x="1404" y="260" type="line"/>
      <point x="1404" y="300" type="line"/>
      <point x="1296" y="300" type="line"/>
      <point x="1296" y="805" type="line"/>
      <point x="1239" y="805" type="line"/>
      <point x="882" y="293" type="line"/>
      <point x="895" y="260" type="line"/>
      <point x="1248" y="260" type="line"/>
      <point x="1248" y="41" type="line"/>
      <point x="1129" y="41" type="line"/>
    </contour>
    <contour>
      <point x="125" y="363" type="line"/>
      <point x="415" y="363" type="line"/>
      <point x="415" y="403" type="line"/>
      <point x="294" y="403" type="line"/>
      <point x="294" y="1152" type="line"/>
      <point x="124" y="1148" type="line"/>
      <point x="125" y="1108" type="line"/>
      <point x="246" y="1109" type="line"/>
      <point x="246" y="403" type="line"/>
      <point x="125" y="403" type="line"/>
    </contour>
    <contour>
      <point x="363" y="-5" type="line"/>
      <point x="413" y="-5" type="line"/>
      <point x="1192" y="1162" type="line"/>
      <point x="1145" y="1162" type="line"/>
    </contour>
    <contour>
      <point x="939" y="300" type="line"/>
      <point x="1248" y="748" type="line"/>
      <point x="1248" y="300" type="line"/>
    </contour>
  </outline>
</glyph>
<glyph name="Oslash" format="1">
  <advance width="1554"/>
  <unicode hex="00D8"/>
  <outline>
    <contour>
      <point x="277" y="-73" type="line"/>
      <point x="1249" y="1182" type="line"/>
      <point x="1203" y="1216" type="line"/>
      <point x="228" y="-38" type="line"/>
    </contour>
    <component base="O" xOffset="6" yOffset="-7"/>
  </outline>
</glyph>
<glyph name="Thorn" format="1">
  <advance width="1184"/>
  <unicode hex="00DE"/>
  <outline>
    <contour>
      <point x="467" y="336" type="line"/>
      <point x="717" y="336" type="line" smooth="yes"/>
      <point x="933" y="336"/>
      <point x="1057" y="447"/>
      <point x="1057" y="643" type="curve" smooth="yes"/>
      <point x="1057" y="813"/>
      <point x="930" y="913"/>
      <point x="708" y="913" type="curve" smooth="yes"/>
      <point x="319" y="913" type="line"/>
      <point x="319" y="849" type="line"/>
      <point x="708" y="849" type="line" smooth="yes"/>
      <point x="868" y="849"/>
      <point x="963" y="772"/>
      <point x="964" y="642" type="curve" smooth="yes"/>
      <point x="965" y="486"/>
      <point x="873" y="398"/>
      <point x="717" y="398" type="curve" smooth="yes"/>
      <point x="467" y="398" type="line"/>
    </contour>
    <component base="I"/>
  </outline>
</glyph>
<glyph name="germandbls" format="1">
  <advance width="1193"/>
  <unicode hex="00DF"/>
  <outline>
    <contour>
      <point x="103" y="0" type="line"/>
      <point x="440" y="0" type="line"/>
      <point x="440" y="50" type="line"/>
      <point x="319" y="50" type="line"/>
      <point x="319" y="877" type="line" smooth="yes"/>
      <point x="319" y="1085"/>
      <point x="409" y="1215"/>
      <point x="603" y="1215" type="curve" smooth="yes"/>
      <point x="797" y="1215"/>
      <point x="888" y="1124"/>
      <point x="888" y="980" type="curve" smooth="yes"/>
      <point x="888" y="814"/>
      <point x="789" y="707"/>
      <point x="600" y="697" type="curve"/>
      <point x="600" y="662" type="line"/>
      <point x="875" y="661"/>
      <point x="1038" y="545"/>
      <point x="1038" y="355" type="curve" smooth="yes"/>
      <point x="1038" y="157"/>
      <point x="849" y="50"/>
      <point x="579" y="50" type="curve"/>
      <point x="579" y="0" type="line"/>
      <point x="902" y="0"/>
      <point x="1097" y="141"/>
      <point x="1097" y="355" type="curve" smooth="yes"/>
      <point x="1097" y="530"/>
      <point x="987" y="663"/>
      <point x="723" y="686" type="curve"/>
      <point x="859" y="717"/>
      <point x="946" y="827"/>
      <point x="946" y="981" type="curve" smooth="yes"/>
      <point x="946" y="1166"/>
      <point x="822" y="1261"/>
      <point x="603" y="1261" type="curve" smooth="yes"/>
      <point x="377" y="1261"/>
      <point x="257" y="1125"/>
      <point x="257" y="872" type="curve" smooth="yes"/>
      <point x="257" y="50" type="line"/>
      <point x="103" y="50" type="line"/>
    </contour>
  </outline>
</glyph>
<glyph name="eth" format="1">
  <advance width="900"/>
  <unicode hex="00F0"/>
  <outline>
    <contour>
      <point x="442" y="-23" type="curve" smooth="yes"/>
      <point x="649" y="-23"/>
      <point x="830" y="125"/>
      <point x="830" y="396" type="curve" smooth="yes"/>
      <point x="830" y="811"/>
      <point x="384" y="1156"/>
      <point x="154" y="1356" type="curve"/>
      <point x="120" y="1320" type="line"/>
      <point x="308" y="1163"/>
      <point x="565" y="963"/>
      <point x="689" y="698" type="curve"/>
      <point x="618" y="764"/>
      <point x="513" y="805"/>
      <point x="431" y="805" type="curve" smooth="yes"/>
      <point x="216" y="805"/>
      <point x="45" y="629"/>
      <point x="45" y="435" type="curve" smooth="yes"/>
      <point x="45" y="205"/>
      <point x="169" y="-23"/>
    </contour>
    <contour>
      <point x="442" y="30" type="curve" smooth="yes"/>
      <point x="207" y="30"/>
      <point x="106" y="228"/>
      <point x="106" y="412" type="curve" smooth="yes"/>
      <point x="106" y="648"/>
      <point x="278" y="757"/>
      <point x="436" y="757" type="curve" smooth="yes"/>
      <point x="597" y="757"/>
      <point x="772" y="651"/>
      <point x="772" y="405" type="curve" smooth="yes"/>
      <point x="772" y="224"/>
      <point x="679" y="30"/>
    </contour>
    <contour>
      <point x="175" y="913" type="line"/>
      <point x="730" y="1152" type="line"/>
      <point x="705" y="1195" type="line"/>
      <point x="150" y="958" type="line"/>
    </contour>
  </outline>
</glyph>
<glyph name="divide" format="1">
  <advance width="730"/>
  <unicode hex="00F7"/>
  <outline>
    <contour>
      <point x="331" y="259" type="line"/>
      <point x="402" y="259" type="line"/>
      <point x="402" y="371" type="line"/>
      <point x="331" y="371" type="line"/>
    </contour>
    <contour>
      <point x="118" y="492" type="line"/>
      <point x="613" y="492" type="line"/>
      <point x="613" y="537" type="line"/>
      <point x="118" y="537" type="line"/>
    </contour>
    <contour>
      <point x="331" y="645" type="line"/>
      <point x="402" y="645" type="line"/>
      <point x="402" y="758" type="line"/>
      <point x="331" y="758" type="line"/>
    </contour>
  </outline>
</glyph>
<glyph name="thorn" format="1">
  <advance width="1060"/>
  <unicode hex="00FE"/>
  <outline>
    <contour>
      <point x="52" y="-320" type="line"/>
      <point x="420" y="-320" type="line"/>
      <point x="420" y="-254" type="line"/>
      <point x="281" y="-254" type="line"/>
      <point x="281" y="104" type="line"/>
      <point x="360" y="28"/>
      <point x="470" y="-15"/>
      <point x="573" y="-15" type="curve" smooth="yes"/>
      <point x="819" y="-15"/>
      <point x="995" y="148"/>
      <point x="995" y="419" type="curve" smooth="yes"/>
      <point x="995" y="679"/>
      <point x="830" y="832"/>
      <point x="591" y="832" type="curve" smooth="yes"/>
      <point x="488" y="832"/>
      <point x="373" y="790"/>
      <point x="282" y="717" type="curve"/>
      <point x="282" y="1152" type="line"/>
      <point x="40" y="1152" type="line"/>
      <point x="40" y="1083" type="line"/>
      <point x="191" y="1083" type="line"/>
      <point x="191" y="-253" type="line"/>
      <point x="52" y="-253" type="line"/>
    </contour>
    <contour>
      <point x="562" y="53" type="curve" smooth="yes"/>
      <point x="466" y="53"/>
      <point x="359" y="97"/>
      <point x="281" y="173" type="curve"/>
      <point x="282" y="645" type="line"/>
      <point x="372" y="720"/>
      <point x="481" y="763"/>
      <point x="574" y="763" type="curve" smooth="yes"/>
      <point x="772" y="763"/>
      <point x="903" y="629"/>
      <point x="903" y="407" type="curve" smooth="yes"/>
      <point x="903" y="184"/>
      <point x="767" y="53"/>
    </contour>
  </outline>
</glyph>
<glyph name="kgreenlandic" format="1">
  <advance width="947"/>
  <unicode hex="0138"/>
  <outline>
    <contour>
      <point x="701" y="0" type="line"/>
      <point x="901" y="0" type="line"/>
      <point x="901" y="45" type="line"/>
      <point x="732" y="45" type="line"/>
      <point x="371" y="410" type="line"/>
      <point x="753" y="759" type="line"/>
      <point x="895" y="759" type="line"/>
      <point x="895" y="804" type="line"/>
      <point x="530" y="804" type="line"/>
      <point x="530" y="759" type="line"/>
      <point x="680" y="759" type="line"/>
      <point x="297" y="411" type="line"/>
    </contour>
    <contour>
      <point x="73" y="0" type="line"/>
      <point x="409" y="0" type="line"/>
      <point x="409" y="45" type="line"/>
      <point x="273" y="45" type="line"/>
      <point x="273" y="804" type="line"/>
      <point x="80" y="804" type="line"/>
      <point x="80" y="759" type="line"/>
      <point x="214" y="759" type="line"/>
      <point x="214" y="45" type="line"/>
      <point x="73" y="45" type="line"/>
    </contour>
  </outline>
</glyph>
<glyph name="Lslash" format="1">
  <advance width="1227"/>
  <unicode hex="0141"/>
  <outline>
    <contour>
      <point x="110" y="423" type="line"/>
      <point x="557" y="691" type="line"/>
      <point x="557" y="767" type="line"/>
      <point x="110" y="495" type="line"/>
    </contour>
    <component base="L"/>
  </outline>
</glyph>
<glyph name="Eng" format="1">
  <advance width="1443"/>
  <unicode hex="014A"/>
  <outline>
    <contour>
      <point x="997" y="1152" type="line"/>
      <point x="997" y="1086" type="line"/>
      <point x="1154" y="1086" type="line"/>
      <point x="1154" y="131" type="line"/>
      <point x="371" y="1152" type="line"/>
      <point x="115" y="1152" type="line"/>
      <point x="115" y="1086" type="line"/>
      <point x="268" y="1086" type="line"/>
      <point x="268" y="66" type="line"/>
      <point x="115" y="66" type="line"/>
      <point x="115" y="0" type="line"/>
      <point x="503" y="0" type="line"/>
      <point x="503" y="66" type="line"/>
      <point x="348" y="66" type="line"/>
      <point x="348" y="1034" type="line"/>
      <point x="1154" y="-12" type="line"/>
      <point x="1154" y="-190"/>
      <point x="1060" y="-297"/>
      <point x="842" y="-297" type="curve"/>
      <point x="842" y="-366" type="line"/>
      <point x="1077" y="-366"/>
      <point x="1234" y="-261"/>
      <point x="1234" y="-9" type="curve" smooth="yes"/>
      <point x="1234" y="1086" type="line"/>
      <point x="1373" y="1086" type="line"/>
      <point x="1373" y="1152" type="line"/>
    </contour>
  </outline>
</glyph>
<glyph name="eng" format="1">
  <advance width="1031"/>
  <unicode hex="014B"/>
  <outline>
    <contour>
      <point x="480" y="-354" type="line"/>
      <point x="715" y="-354"/>
      <point x="874" y="-249"/>
      <point x="874" y="3" type="curve" smooth="yes"/>
      <point x="874" y="571" type="line" smooth="yes"/>
      <point x="874" y="731"/>
      <point x="770" y="826"/>
      <point x="622" y="826" type="curve" smooth="yes"/>
      <point x="530" y="826"/>
      <point x="410" y="783"/>
      <point x="299" y="716" type="curve"/>
      <point x="299" y="804" type="line"/>
      <point x="41" y="804" type="line"/>
      <point x="41" y="738" type="line"/>
      <point x="209" y="738" type="line"/>
      <point x="209" y="66" type="line"/>
      <point x="39" y="66" type="line"/>
      <point x="39" y="0" type="line"/>
      <point x="461" y="0" type="line"/>
      <point x="461" y="66" type="line"/>
      <point x="299" y="66" type="line"/>
      <point x="299" y="653" type="line"/>
      <point x="416" y="716"/>
      <point x="530" y="754"/>
      <point x="602" y="754" type="curve" smooth="yes"/>
      <point x="714" y="754"/>
      <point x="785" y="686"/>
      <point x="785" y="572" type="curve" smooth="yes"/>
      <point x="785" y="-10" type="line" smooth="yes"/>
      <point x="785" y="-187"/>
      <point x="690" y="-287"/>
      <point x="482" y="-287" type="curve"/>
    </contour>
  </outline>
</glyph>
<glyph name="OE" format="1">
  <advance width="1981"/>
  <unicode hex="0152"/>
  <outline>
    <contour>
      <point x="788" y="0" type="curve" smooth="yes"/>
      <point x="1852" y="0" type="line"/>
      <point x="1852" y="379" type="line"/>
      <point x="1774" y="379" type="line"/>
      <point x="1774" y="69" type="line"/>
      <point x="1118" y="69" type="line"/>
      <point x="1118" y="537" type="line"/>
      <point x="1553" y="537" type="line"/>
      <point x="1553" y="365" type="line"/>
      <point x="1611" y="365" type="line"/>
      <point x="1611" y="765" type="line"/>
      <point x="1553" y="765" type="line"/>
      <point x="1553" y="607" type="line"/>
      <point x="1119" y="607" type="line"/>
      <point x="1119" y="1083" type="line"/>
      <point x="1753" y="1083" type="line"/>
      <point x="1753" y="793" type="line"/>
      <point x="1830" y="793" type="line"/>
      <point x="1830" y="1152" type="line"/>
      <point x="788" y="1152" type="line" smooth="yes"/>
      <point x="385" y="1152"/>
      <point x="140" y="934"/>
      <point x="139" y="574" type="curve" smooth="yes"/>
      <point x="140" y="216"/>
      <point x="386" y="0"/>
    </contour>
    <contour>
      <point x="794" y="69" type="line"/>
      <point x="451" y="69"/>
      <point x="240" y="260"/>
      <point x="240" y="574" type="curve" smooth="yes"/>
      <point x="240" y="894"/>
      <point x="454" y="1083"/>
      <point x="793" y="1083" type="curve" smooth="yes"/>
      <point x="1023" y="1083" type="line"/>
      <point x="1023" y="69" type="line"/>
    </contour>
  </outline>
</glyph>
<glyph name="OE" format="1">
  <advance width="1962"/>
  <unicode hex="0152"/>
  <outline>
    <contour>
      <point x="785" y="0" type="curve" smooth="yes"/>
      <point x="1826" y="0" type="line"/>
      <point x="1826" y="390" type="line"/>
      <point x="1773" y="390" type="line"/>
      <point x="1773" y="50" type="line"/>
      <point x="1067" y="50" type="line"/>
      <point x="1067" y="540" type="line"/>
      <point x="1538" y="540" type="line"/>
      <point x="1538" y="350" type="line"/>
      <point x="1584" y="350" type="line"/>
      <point x="1584" y="761" type="line"/>
      <point x="1538" y="761" type="line"/>
      <point x="1538" y="589" type="line"/>
      <point x="1068" y="589" type="line"/>
      <point x="1068" y="1102" type="line"/>
      <point x="1746" y="1102" type="line"/>
      <point x="1746" y="786" type="line"/>
      <point x="1799" y="786" type="line"/>
      <point x="1799" y="1152" type="line"/>
      <point x="785" y="1152" type="line" smooth="yes"/>
      <point x="378" y="1152"/>
      <point x="133" y="935"/>
      <point x="132" y="571" type="curve" smooth="yes"/>
      <point x="133" y="213"/>
      <point x="379" y="0"/>
    </contour>
    <contour>
      <point x="787" y="50" type="line" smooth="yes"/>
      <point x="419" y="50"/>
      <point x="193" y="247"/>
      <point x="193" y="571" type="curve" smooth="yes"/>
      <point x="193" y="907"/>
      <point x="423" y="1102"/>
      <point x="786" y="1102" type="curve" smooth="yes"/>
      <point x="1006" y="1102" type="line"/>
      <point x="1006" y="50" type="line"/>
    </contour>
  </outline>
</glyph>
<glyph name="apostrophemod" format="1">
  <advance width="600"/>
  <unicode hex="02BC"/>
  <outline>
    <contour>
      <point x="67" y="804" type="move" name="_top"/>
    </contour>
    <contour>
      <point x="49" y="920" type="line"/>
      <point x="139" y="920"/>
      <point x="156" y="992"/>
      <point x="156" y="1077" type="curve"/>
      <point x="157" y="1191" type="line"/>
      <point x="58" y="1192" type="line"/>
      <point x="58" y="1083" type="line"/>
      <point x="116" y="1083" type="line"/>
      <point x="116" y="974"/>
      <point x="103" y="952"/>
      <point x="49" y="945" type="curve"/>
    </contour>
  </outline>
</glyph>
<glyph name="caron" format="1">
  <advance width="422"/>
  <unicode hex="02C7"/>
  <outline>
    <contour>
      <point x="210" y="804" type="move" name="_top"/>
    </contour>
    <contour>
      <point x="170" y="925" type="line"/>
      <point x="245" y="925" type="line"/>
      <point x="414" y="1232" type="line"/>
      <point x="347" y="1232" type="line"/>
      <point x="208" y="983" type="line"/>
      <point x="66" y="1232" type="line"/>
      <point x="-2" y="1232" type="line"/>
    </contour>
  </outline>
</glyph>
<glyph name="ogonek" format="1">
  <advance width="419"/>
  <unicode hex="02DB"/>
  <outline>
    <contour>
      <point x="255" y="-322" type="curve" smooth="yes"/>
      <point x="295" y="-322"/>
      <point x="333" y="-309"/>
      <point x="373" y="-284" type="curve"/>
      <point x="373" y="-228" type="line"/>
      <point x="342" y="-250"/>
      <point x="311" y="-260"/>
      <point x="279" y="-260" type="curve" smooth="yes"/>
      <point x="224" y="-260"/>
      <point x="184" y="-227"/>
      <point x="184" y="-162" type="curve" smooth="yes"/>
      <point x="184" y="-114"/>
      <point x="215" y="-54"/>
      <point x="274" y="3" type="curve"/>
      <point x="218" y="3" type="line"/>
      <point x="147" y="-64"/>
      <point x="112" y="-131"/>
      <point x="112" y="-188" type="curve" smooth="yes"/>
      <point x="112" y="-272"/>
      <point x="177" y="-322"/>
    </contour>
  </outline>
</glyph>
<glyph name="uni0307" format="1">
  <advance width="400"/>
  <unicode hex="0307"/>
  <outline>
    <contour>
      <point x="201" y="805" type="move" name="_top"/>
    </contour>
    <contour>
      <point x="199" y="963" type="curve" smooth="yes"/>
      <point x="248" y="963"/>
      <point x="273" y="998"/>
      <point x="273" y="1031" type="curve" smooth="yes"/>
      <point x="273" y="1067"/>
      <point x="247" y="1100"/>
      <point x="199" y="1100" type="curve" smooth="yes"/>
      <point x="152" y="1100"/>
      <point x="127" y="1067"/>
      <point x="126" y="1031" type="curve" smooth="yes"/>
      <point x="126" y="998"/>
      <point x="152" y="963"/>
    </contour>
  </outline>
</glyph>
<glyph name="uni030F" format="1">
  <advance width="653"/>
  <unicode hex="030F"/>
  <outline>
    <contour>
      <point x="360" y="804" type="move" name="_top"/>
    </contour>
    <contour>
      <point x="202" y="984" type="line"/>
      <point x="255" y="984" type="line"/>
      <point x="144" y="1287" type="line"/>
      <point x="47" y="1287" type="line"/>
    </contour>
    <contour>
      <point x="424" y="984" type="line"/>
      <point x="477" y="984" type="line"/>
      <point x="366" y="1287" type="line"/>
      <point x="269" y="1287" type="line"/>
    </contour>
  </outline>
</glyph>
<glyph name="uni0312" format="1">
  <advance width="600"/>
  <unicode hex="0312"/>
  <outline>
    <contour>
      <point x="250" y="804" type="move" name="_top"/>
    </contour>
    <contour>
      <point x="330" y="923" type="line"/>
      <point x="330" y="1056" type="line"/>
      <point x="254" y="1056" type="line"/>
      <point x="254" y="1158"/>
      <point x="276" y="1182"/>
      <point x="337" y="1192" type="curve"/>
      <point x="337" y="1230" type="line"/>
      <point x="232" y="1230"/>
      <point x="199" y="1158"/>
      <point x="199" y="1061" type="curve" smooth="yes"/>
      <point x="198" y="923" type="line"/>
    </contour>
  </outline>
</glyph>
<glyph name="uni0394" format="1">
  <advance width="1167"/>
  <unicode hex="0394"/>
  <outline>
    <contour>
      <point x="84" y="0" type="line"/>
      <point x="1083" y="0" type="line"/>
      <point x="1083" y="43" type="line"/>
      <point x="614" y="1152" type="line"/>
      <point x="527" y="1152" type="line"/>
      <point x="84" y="43" type="line"/>
    </contour>
    <contour>
      <point x="171" y="67" type="line"/>
      <point x="561" y="1063" type="line"/>
      <point x="977" y="67" type="line"/>
    </contour>
  </outline>
</glyph>
<glyph name="pi" format="1">
  <advance width="1119"/>
  <unicode hex="03C0"/>
  <outline>
    <contour>
      <point x="901" y="-11" type="curve" smooth="yes"/>
      <point x="929" y="-11"/>
      <point x="968" y="-3"/>
      <point x="1003" y="11" type="curve"/>
      <point x="1003" y="49" type="line"/>
      <point x="974" y="40"/>
      <point x="949" y="35"/>
      <point x="926" y="35" type="curve" smooth="yes"/>
      <point x="832" y="35"/>
      <point x="784" y="106"/>
      <point x="784" y="245" type="curve" smooth="yes"/>
      <point x="784" y="349"/>
      <point x="830" y="580"/>
      <point x="867" y="753" type="curve"/>
      <point x="1032" y="753" type="line"/>
      <point x="1032" y="804" type="line"/>
      <point x="303" y="804" type="line" smooth="yes"/>
      <point x="196" y="804"/>
      <point x="167" y="717"/>
      <point x="167" y="622" type="curve"/>
      <point x="206" y="622" type="line"/>
      <point x="207" y="721"/>
      <point x="243" y="753"/>
      <point x="296" y="753" type="curve" smooth="yes"/>
      <point x="391" y="753" type="line"/>
      <point x="316" y="243" type="line" smooth="yes"/>
      <point x="295" y="106"/>
      <point x="271" y="35"/>
      <point x="124" y="35" type="curve"/>
      <point x="124" y="-4" type="line"/>
      <point x="320" y="-4"/>
      <point x="358" y="60"/>
      <point x="378" y="238" type="curve" smooth="yes"/>
      <point x="437" y="753" type="line"/>
      <point x="825" y="753" type="line"/>
      <point x="781" y="598"/>
      <point x="725" y="360"/>
      <point x="725" y="234" type="curve" smooth="yes"/>
      <point x="725" y="67"/>
      <point x="788" y="-11"/>
    </contour>
  </outline>
</glyph>
<glyph name="quoteright" format="1">
  <advance width="440"/>
  <unicode hex="2019"/>
  <outline>
    <contour>
      <point x="174" y="951" type="line"/>
      <point x="277" y="953"/>
      <point x="309" y="1031"/>
      <point x="309" y="1126" type="curve" smooth="yes"/>
      <point x="309" y="1251" type="line"/>
      <point x="185" y="1251" type="line"/>
      <point x="185" y="1128" type="line"/>
      <point x="242" y="1128" type="line"/>
      <point x="241" y="1047"/>
      <point x="238" y="1020"/>
      <point x="174" y="1000" type="curve"/>
    </contour>
  </outline>
</glyph>
<glyph name="quotesinglbase" format="1">
  <advance width="435"/>
  <unicode hex="201A"/>
  <outline>
    <contour>
      <point x="178" y="-183" type="line"/>
      <point x="281" y="-182"/>
      <point x="312" y="-104"/>
      <point x="311" y="-8" type="curve" smooth="yes"/>
      <point x="311" y="116" type="line"/>
      <point x="188" y="116" type="line"/>
      <point x="188" y="-8" type="line"/>
      <point x="246" y="-8" type="line"/>
      <point x="245" y="-89"/>
      <point x="240" y="-115"/>
      <point x="178" y="-135" type="curve"/>
    </contour>
  </outline>
</glyph>
<glyph name="quotedblleft" format="1">
  <advance width="662"/>
  <unicode hex="201C"/>
  <outline>
    <contour>
      <point x="172" y="1026" type="line"/>
      <point x="273" y="1026" type="line"/>
      <point x="273" y="1124" type="line"/>
      <point x="227" y="1124" type="line"/>
      <point x="227" y="1203"/>
      <point x="225" y="1226"/>
      <point x="286" y="1250" type="curve"/>
      <point x="286" y="1283" type="line"/>
      <point x="198" y="1282"/>
      <point x="172" y="1207"/>
      <point x="172" y="1126" type="curve" smooth="yes"/>
    </contour>
    <contour>
      <point x="367" y="1026" type="line"/>
      <point x="468" y="1026" type="line"/>
      <point x="468" y="1124" type="line"/>
      <point x="422" y="1124" type="line"/>
      <point x="422" y="1203"/>
      <point x="421" y="1226"/>
      <point x="481" y="1250" type="curve"/>
      <point x="481" y="1283" type="line"/>
      <point x="393" y="1282"/>
      <point x="367" y="1207"/>
      <point x="367" y="1126" type="curve" smooth="yes"/>
    </contour>
  </outline>
</glyph>
<glyph name="quotedblbase" format="1">
  <advance width="726"/>
  <unicode hex="201E"/>
  <outline>
    <contour>
      <point x="185" y="-183" type="line"/>
      <point x="287" y="-182"/>
      <point x="318" y="-104"/>
      <point x="318" y="-8" type="curve" smooth="yes"/>
      <point x="318" y="116" type="line"/>
      <point x="195" y="116" type="line"/>
      <point x="195" y="-8" type="line"/>
      <point x="253" y="-8" type="line"/>
      <point x="252" y="-89"/>
      <point x="248" y="-115"/>
      <point x="185" y="-135" type="curve"/>
    </contour>
    <contour>
      <point x="428" y="-183" type="line"/>
      <point x="529" y="-182"/>
      <point x="561" y="-104"/>
      <point x="561" y="-8" type="curve" smooth="yes"/>
      <point x="561" y="116" type="line"/>
      <point x="437" y="116" type="line"/>
      <point x="437" y="-8" type="line"/>
      <point x="494" y="-8" type="line"/>
      <point x="493" y="-89"/>
      <point x="490" y="-115"/>
      <point x="428" y="-135" type="curve"/>
    </contour>
  </outline>
</glyph>
<glyph name="dagger" format="1">
  <advance width="411"/>
  <unicode hex="2020"/>
  <outline>
    <contour>
      <point x="192" y="62" type="curve"/>
      <point x="220" y="62" type="line"/>
      <point x="220" y="256"/>
      <point x="248" y="386"/>
      <point x="233" y="527" type="curve"/>
      <point x="233" y="644"/>
      <point x="246" y="700"/>
      <point x="220" y="833" type="curve"/>
      <point x="412" y="817" type="line"/>
      <point x="412" y="873" type="line"/>
      <point x="220" y="865" type="line"/>
      <point x="248" y="1088" type="line"/>
      <point x="164" y="1088" type="line"/>
      <point x="192" y="865" type="line"/>
      <point x="-4" y="873" type="line"/>
      <point x="-4" y="817" type="line"/>
      <point x="192" y="833" type="line"/>
      <point x="167" y="698"/>
      <point x="179" y="642"/>
      <point x="179" y="523" type="curve"/>
      <point x="164" y="384"/>
      <point x="192" y="259"/>
    </contour>
  </outline>
</glyph>
<glyph name="guilsinglleft" format="1">
  <advance width="426"/>
  <unicode hex="2039"/>
  <outline>
    <contour>
      <point x="277" y="292" type="line"/>
      <point x="318" y="292" type="line"/>
      <point x="105" y="673" type="line"/>
      <point x="318" y="1049" type="line"/>
      <point x="277" y="1049" type="line"/>
      <point x="9" y="673" type="line"/>
    </contour>
  </outline>
</glyph>
<glyph name="guilsinglright" format="1">
  <advance width="469"/>
  <unicode hex="203A"/>
  <outline>
    <contour>
      <point x="115" y="259" type="line"/>
      <point x="178" y="259" type="line"/>
      <point x="457" y="646" type="line"/>
      <point x="178" y="1030" type="line"/>
      <point x="115" y="1030" type="line"/>
      <point x="326" y="646" type="line"/>
    </contour>
  </outline>
</glyph>
<glyph name="fraction" format="1">
  <advance width="374"/>
  <unicode hex="2044"/>
  <outline>
    <contour>
      <point x="-44" y="-28" type="line"/>
      <point x="17" y="-28" type="line"/>
      <point x="407" y="1285" type="line"/>
      <point x="351" y="1285" type="line"/>
    </contour>
  </outline>
</glyph>
<glyph name="Euro" format="1">
  <advance width="1401"/>
  <unicode hex="20AC"/>
  <outline>
    <contour>
      <point x="-25" y="441" type="line"/>
      <point x="602" y="441" type="line"/>
      <point x="629" y="483" type="line"/>
      <point x="2" y="483" type="line"/>
    </contour>
    <contour>
      <point x="-25" y="636" type="line"/>
      <point x="602" y="636" type="line"/>
      <point x="629" y="678" type="line"/>
      <point x="2" y="678" type="line"/>
    </contour>
    <component base="C"/>
  </outline>
</glyph>
<glyph name="uni2113" format="1">
  <advance width="593"/>
  <unicode hex="2113"/>
  <outline>
    <contour>
      <point x="427" y="-11" type="curve"/>
      <point x="440" y="50" type="line"/>
      <point x="283" y="50"/>
      <point x="234" y="70"/>
      <point x="266" y="279" type="curve" smooth="yes"/>
      <point x="414" y="1215" type="line"/>
      <point x="151" y="1215" type="line"/>
      <point x="145" y="1147" type="line"/>
      <point x="322" y="1147" type="line"/>
      <point x="178" y="262" type="line" smooth="yes"/>
      <point x="144" y="51"/>
      <point x="203" y="-13"/>
    </contour>
  </outline>
</glyph>
<glyph name="trademark" format="1">
  <advance width="1656"/>
  <unicode hex="2122"/>
  <outline>
    <contour>
      <point x="799" y="555" type="line"/>
      <point x="1006" y="555" type="line"/>
      <point x="1006" y="605" type="line"/>
      <point x="929" y="605" type="line"/>
      <point x="929" y="1032" type="line"/>
      <point x="1143" y="593" type="line"/>
      <point x="1158" y="593" type="line"/>
      <point x="1362" y="1030" type="line"/>
      <point x="1362" y="605" type="line"/>
      <point x="1287" y="605" type="line"/>
      <point x="1287" y="555" type="line"/>
      <point x="1497" y="555" type="line"/>
      <point x="1497" y="605" type="line"/>
      <point x="1423" y="605" type="line"/>
      <point x="1423" y="1101" type="line"/>
      <point x="1497" y="1101" type="line"/>
      <point x="1497" y="1152" type="line"/>
      <point x="1357" y="1152" type="line"/>
      <point x="1151" y="695" type="line"/>
      <point x="937" y="1152" type="line"/>
      <point x="799" y="1152" type="line"/>
      <point x="799" y="1101" type="line"/>
      <point x="874" y="1101" type="line"/>
      <point x="874" y="605" type="line"/>
      <point x="799" y="605" type="line"/>
    </contour>
    <contour>
      <point x="290" y="555" type="line"/>
      <point x="510" y="555" type="line"/>
      <point x="510" y="604" type="line"/>
      <point x="431" y="604" type="line"/>
      <point x="431" y="1098" type="line"/>
      <point x="610" y="1098" type="line"/>
      <point x="610" y="940" type="line"/>
      <point x="666" y="940" type="line"/>
      <point x="666" y="1152" type="line"/>
      <point x="138" y="1152" type="line"/>
      <point x="138" y="940" type="line"/>
      <point x="194" y="940" type="line"/>
      <point x="194" y="1098" type="line"/>
      <point x="369" y="1098" type="line"/>
      <point x="369" y="604" type="line"/>
      <point x="290" y="604" type="line"/>
    </contour>
  </outline>
</glyph>
<glyph name="Omega" format="1">
  <advance width="1426"/>
  <unicode hex="2126"/>
  <outline>
    <contour>
      <point x="164" y="0" type="line"/>
      <point x="575" y="0" type="line"/>
      <point x="575" y="67" type="line"/>
      <point x="353" y="192"/>
      <point x="247" y="422"/>
      <point x="247" y="629" type="curve" smooth="yes"/>
      <point x="247" y="877"/>
      <point x="403" y="1100"/>
      <point x="713" y="1100" type="curve" smooth="yes"/>
      <point x="1022" y="1100"/>
      <point x="1179" y="876"/>
      <point x="1179" y="629" type="curve" smooth="yes"/>
      <point x="1179" y="422"/>
      <point x="1073" y="192"/>
      <point x="851" y="67" type="curve"/>
      <point x="851" y="0" type="line"/>
      <point x="1262" y="0" type="line"/>
      <point x="1262" y="66" type="line"/>
      <point x="952" y="66" type="line"/>
      <point x="1171" y="196"/>
      <point x="1275" y="419"/>
      <point x="1275" y="626" type="curve" smooth="yes"/>
      <point x="1275" y="910"/>
      <point x="1078" y="1174"/>
      <point x="713" y="1174" type="curve" smooth="yes"/>
      <point x="349" y="1174"/>
      <point x="151" y="909"/>
      <point x="151" y="626" type="curve" smooth="yes"/>
      <point x="151" y="419"/>
      <point x="256" y="196"/>
      <point x="475" y="66" type="curve"/>
      <point x="164" y="66" type="line"/>
    </contour>
  </outline>
</glyph>
<glyph name="partialdiff" format="1">
  <advance width="1014"/>
  <unicode hex="2202"/>
  <outline>
    <contour>
      <point x="401" y="-21" type="curve" smooth="yes"/>
      <point x="742" y="-21"/>
      <point x="857" y="361"/>
      <point x="857" y="654" type="curve" smooth="yes"/>
      <point x="857" y="980"/>
      <point x="737" y="1186"/>
      <point x="496" y="1186" type="curve" smooth="yes"/>
      <point x="349" y="1186"/>
      <point x="257" y="1121"/>
      <point x="257" y="1031" type="curve" smooth="yes"/>
      <point x="257" y="982"/>
      <point x="285" y="960"/>
      <point x="336" y="960" type="curve"/>
      <point x="336" y="1072"/>
      <point x="417" y="1130"/>
      <point x="525" y="1130" type="curve" smooth="yes"/>
      <point x="695" y="1130"/>
      <point x="813" y="936"/>
      <point x="805" y="552" type="curve"/>
      <point x="818" y="558" type="line"/>
      <point x="799" y="633"/>
      <point x="711" y="714"/>
      <point x="561" y="714" type="curve" smooth="yes"/>
      <point x="252" y="714"/>
      <point x="131" y="424"/>
      <point x="131" y="248" type="curve" smooth="yes"/>
      <point x="131" y="107"/>
      <point x="199" y="-21"/>
    </contour>
    <contour>
      <point x="435" y="34" type="curve" smooth="yes"/>
      <point x="287" y="34"/>
      <point x="236" y="131"/>
      <point x="236" y="244" type="curve" smooth="yes"/>
      <point x="236" y="387"/>
      <point x="324" y="660"/>
      <point x="578" y="660" type="curve" smooth="yes"/>
      <point x="698" y="660"/>
      <point x="774" y="606"/>
      <point x="797" y="514" type="curve"/>
      <point x="770" y="275"/>
      <point x="641" y="34"/>
    </contour>
  </outline>
</glyph>
<glyph name="emptyset" format="1">
  <advance width="1347"/>
  <unicode hex="2205"/>
  <outline>
    <contour>
      <point x="231" y="-44" type="line"/>
      <point x="343" y="88" type="line"/>
      <point x="435" y="19"/>
      <point x="549" y="-22"/>
      <point x="673" y="-22" type="curve" smooth="yes"/>
      <point x="975" y="-22"/>
      <point x="1222" y="223"/>
      <point x="1222" y="525" type="curve" smooth="yes"/>
      <point x="1222" y="681"/>
      <point x="1156" y="822"/>
      <point x="1051" y="922" type="curve"/>
      <point x="1172" y="1065" type="line"/>
      <point x="1142" y="1093" type="line"/>
      <point x="1020" y="949" type="line"/>
      <point x="925" y="1026"/>
      <point x="804" y="1073"/>
      <point x="673" y="1073" type="curve" smooth="yes"/>
      <point x="371" y="1073"/>
      <point x="126" y="830"/>
      <point x="126" y="525" type="curve" smooth="yes"/>
      <point x="126" y="360"/>
      <point x="197" y="213"/>
      <point x="311" y="114" type="curve"/>
      <point x="201" y="-16" type="line"/>
    </contour>
    <contour>
      <point x="341" y="149" type="line"/>
      <point x="237" y="240"/>
      <point x="172" y="375"/>
      <point x="172" y="525" type="curve"/>
      <point x="172" y="803"/>
      <point x="396" y="1028"/>
      <point x="673" y="1028" type="curve" smooth="yes"/>
      <point x="793" y="1028"/>
      <point x="904" y="985"/>
      <point x="990" y="914" type="curve"/>
    </contour>
    <contour>
      <point x="673" y="23" type="curve" smooth="yes"/>
      <point x="560" y="23"/>
      <point x="456" y="60"/>
      <point x="373" y="123" type="curve"/>
      <point x="1021" y="887" type="line"/>
      <point x="1116" y="795"/>
      <point x="1175" y="666"/>
      <point x="1175" y="525" type="curve" smooth="yes"/>
      <point x="1175" y="249"/>
      <point x="950" y="23"/>
    </contour>
  </outline>
</glyph>
<glyph name="Delta" format="1">
  <advance width="823"/>
  <unicode hex="2206"/>
  <outline>
    <contour>
      <point x="66" y="0" type="line"/>
      <point x="773" y="0" type="line"/>
      <point x="773" y="67" type="line"/>
      <point x="460" y="1043" type="line"/>
      <point x="381" y="1043" type="line"/>
      <point x="66" y="65" type="line"/>
    </contour>
    <contour>
      <point x="129" y="72" type="line"/>
      <point x="129" y="72"/>
      <point x="397" y="924"/>
      <point x="403" y="948" type="curve"/>
      <point x="408" y="924"/>
      <point x="675" y="72"/>
      <point x="675" y="72" type="curve"/>
    </contour>
  </outline>
</glyph>
<glyph name="product" format="1">
  <advance width="1322"/>
  <unicode hex="220F"/>
  <outline>
    <contour>
      <point x="116" y="0" type="line"/>
      <point x="473" y="0" type="line"/>
      <point x="473" y="47" type="line"/>
      <point x="325" y="47" type="line"/>
      <point x="325" y="1107" type="line"/>
      <point x="998" y="1107" type="line"/>
      <point x="998" y="47" type="line"/>
      <point x="849" y="47" type="line"/>
      <point x="849" y="0" type="line"/>
      <point x="1206" y="0" type="line"/>
      <point x="1206" y="47" type="line"/>
      <point x="1057" y="47" type="line"/>
      <point x="1057" y="1107" type="line"/>
      <point x="1206" y="1107" type="line"/>
      <point x="1206" y="1152" type="line"/>
      <point x="116" y="1152" type="line"/>
      <point x="116" y="1107" type="line"/>
      <point x="265" y="1107" type="line"/>
      <point x="265" y="47" type="line"/>
      <point x="116" y="47" type="line"/>
    </contour>
  </outline>
</glyph>
<glyph name="summation" format="1">
  <advance width="1243"/>
  <unicode hex="2211"/>
  <outline>
    <contour>
      <point x="122" y="0" type="line"/>
      <point x="1087" y="0" type="line"/>
      <point x="1087" y="360" type="line"/>
      <point x="1009" y="360" type="line"/>
      <point x="1009" y="66" type="line"/>
      <point x="349" y="66" type="line"/>
      <point x="736" y="577" type="line"/>
      <point x="736" y="619" type="line"/>
      <point x="370" y="1086" type="line"/>
      <point x="991" y="1086" type="line"/>
      <point x="991" y="798" type="line"/>
      <point x="1067" y="798" type="line"/>
      <point x="1067" y="1152" type="line"/>
      <point x="122" y="1152" type="line"/>
      <point x="122" y="1086" type="line"/>
      <point x="276" y="1086" type="line"/>
      <point x="663" y="588" type="line"/>
      <point x="270" y="66" type="line"/>
      <point x="122" y="66" type="line"/>
    </contour>
  </outline>
</glyph>
<glyph name="minus" format="1">
  <advance width="914"/>
  <unicode hex="2212"/>
  <outline>
    <contour>
      <point x="100" y="555" type="line"/>
      <point x="814" y="555" type="line"/>
      <point x="814" y="612" type="line"/>
      <point x="100" y="612" type="line"/>
    </contour>
  </outline>
</glyph>
<glyph name="radical" format="1">
  <advance width="1123"/>
  <unicode hex="221A"/>
  <outline>
    <contour>
      <point x="506" y="-14" type="line"/>
      <point x="539" y="-14" type="line"/>
      <point x="993" y="1363" type="line"/>
      <point x="945" y="1363" type="line"/>
      <point x="526" y="87" type="line"/>
      <point x="290" y="628" type="line"/>
      <point x="51" y="628" type="line"/>
      <point x="51" y="585" type="line"/>
      <point x="238" y="585" type="line"/>
    </contour>
  </outline>
</glyph>
<glyph name="infinity" format="1">
  <advance width="1280"/>
  <unicode hex="221E"/>
  <outline>
    <contour>
      <point x="898" y="270" type="curve" smooth="yes"/>
      <point x="1014" y="270"/>
      <point x="1141" y="364"/>
      <point x="1141" y="544" type="curve" smooth="yes"/>
      <point x="1141" y="731"/>
      <point x="1019" y="820"/>
      <point x="899" y="820" type="curve" smooth="yes"/>
      <point x="788" y="820"/>
      <point x="701" y="752"/>
      <point x="638" y="636" type="curve"/>
      <point x="570" y="771"/>
      <point x="462" y="823"/>
      <point x="385" y="823" type="curve" smooth="yes"/>
      <point x="232" y="823"/>
      <point x="138" y="694"/>
      <point x="138" y="549" type="curve" smooth="yes"/>
      <point x="138" y="400"/>
      <point x="216" y="275"/>
      <point x="385" y="275" type="curve" smooth="yes"/>
      <point x="477" y="275"/>
      <point x="571" y="328"/>
      <point x="644" y="463" type="curve"/>
      <point x="714" y="316"/>
      <point x="805" y="270"/>
    </contour>
    <contour>
      <point x="378" y="318" type="curve" smooth="yes"/>
      <point x="261" y="318"/>
      <point x="201" y="419"/>
      <point x="201" y="548" type="curve" smooth="yes"/>
      <point x="201" y="655"/>
      <point x="255" y="780"/>
      <point x="376" y="780" type="curve" smooth="yes"/>
      <point x="474" y="780"/>
      <point x="554" y="696"/>
      <point x="617" y="549" type="curve"/>
      <point x="542" y="387"/>
      <point x="467" y="318"/>
    </contour>
    <contour>
      <point x="902" y="315" type="curve" smooth="yes"/>
      <point x="800" y="315"/>
      <point x="735" y="379"/>
      <point x="661" y="544" type="curve"/>
      <point x="732" y="697"/>
      <point x="804" y="775"/>
      <point x="901" y="775" type="curve" smooth="yes"/>
      <point x="1008" y="775"/>
      <point x="1078" y="675"/>
      <point x="1078" y="546" type="curve" smooth="yes"/>
      <point x="1078" y="405"/>
      <point x="1006" y="315"/>
    </contour>
  </outline>
</glyph>
<glyph name="integral" format="1">
  <advance width="706"/>
  <unicode hex="222B"/>
  <outline>
    <contour>
      <point x="101" y="-163" type="curve" smooth="yes"/>
      <point x="245" y="-163"/>
      <point x="287" y="-60"/>
      <point x="305" y="59" type="curve" smooth="yes"/>
      <point x="459" y="999" type="line" smooth="yes"/>
      <point x="478" y="1126"/>
      <point x="523" y="1163"/>
      <point x="582" y="1161" type="curve" smooth="yes"/>
      <point x="631" y="1158"/>
      <point x="653" y="1117"/>
      <point x="653" y="1050" type="curve"/>
      <point x="714" y="1050"/>
      <point x="732" y="1083"/>
      <point x="735" y="1113" type="curve" smooth="yes"/>
      <point x="737" y="1168"/>
      <point x="676" y="1204"/>
      <point x="598" y="1206" type="curve" smooth="yes"/>
      <point x="461" y="1209"/>
      <point x="394" y="1124"/>
      <point x="374" y="999" type="curve" smooth="yes"/>
      <point x="219" y="45" type="line" smooth="yes"/>
      <point x="202" y="-70"/>
      <point x="175" y="-117"/>
      <point x="117" y="-117" type="curve" smooth="yes"/>
      <point x="68" y="-117"/>
      <point x="44" y="-78"/>
      <point x="45" y="-5" type="curve"/>
      <point x="-17" y="-5"/>
      <point x="-35" y="-37"/>
      <point x="-37" y="-66" type="curve" smooth="yes"/>
      <point x="-40" y="-122"/>
      <point x="19" y="-163"/>
    </contour>
  </outline>
</glyph>
<glyph name="lessequal" format="1">
  <advance width="637"/>
  <unicode hex="2264"/>
  <outline>
    <contour>
      <point x="637" y="185" type="line"/>
      <point x="637" y="237" type="line"/>
      <point x="86" y="529" type="line"/>
      <point x="637" y="823" type="line"/>
      <point x="637" y="878" type="line"/>
      <point x="-1" y="545" type="line"/>
      <point x="-1" y="515" type="line"/>
    </contour>
    <contour>
      <point x="-1" y="0" type="line"/>
      <point x="637" y="0" type="line"/>
      <point x="637" y="44" type="line"/>
      <point x="-1" y="44" type="line"/>
    </contour>
  </outline>
</glyph>
<glyph name="greaterequal" format="1">
  <advance width="727"/>
  <unicode hex="2265"/>
  <outline>
    <contour>
      <point x="38" y="191" type="line"/>
      <point x="729" y="554" type="line"/>
      <point x="729" y="596" type="line"/>
      <point x="38" y="961" type="line"/>
      <point x="38" y="883" type="line"/>
      <point x="613" y="574" type="line"/>
      <point x="38" y="268" type="line"/>
    </contour>
    <contour>
      <point x="38" y="0" type="line"/>
      <point x="729" y="0" type="line"/>
      <point x="729" y="67" type="line"/>
      <point x="38" y="67" type="line"/>
    </contour>
  </outline>
</glyph>
<glyph name="uniFB00" format="1">
  <advance width="1343"/>
  <unicode hex="FB00"/>
  <outline>
    <contour>
      <point x="1147" y="739" type="line"/>
      <point x="1147" y="805" type="line"/>
      <point x="926" y="805" type="line"/>
      <point x="926" y="1012" type="line" smooth="yes"/>
      <point x="926" y="1095"/>
      <point x="974" y="1136"/>
      <point x="1023" y="1136" type="curve" smooth="yes"/>
      <point x="1076" y="1136"/>
      <point x="1123" y="1114"/>
      <point x="1134" y="1027" type="curve"/>
      <point x="1202" y="1049" type="line"/>
      <point x="1190" y="1172"/>
      <point x="1103" y="1204"/>
      <point x="1021" y="1204" type="curve" smooth="yes"/>
      <point x="918" y="1204"/>
      <point x="836" y="1133"/>
      <point x="836" y="1008" type="curve" smooth="yes"/>
      <point x="836" y="805" type="line"/>
      <point x="348" y="804" type="line"/>
      <point x="348" y="1010" type="line" smooth="yes"/>
      <point x="348" y="1095"/>
      <point x="385" y="1137"/>
      <point x="449" y="1137" type="curve" smooth="yes"/>
      <point x="514" y="1137"/>
      <point x="545" y="1098"/>
      <point x="554" y="1027" type="curve"/>
      <point x="623" y="1049" type="line"/>
      <point x="615" y="1156"/>
      <point x="543" y="1204"/>
      <point x="445" y="1204" type="curve" smooth="yes"/>
      <point x="319" y="1204"/>
      <point x="255" y="1130"/>
      <point x="255" y="1011" type="curve" smooth="yes"/>
      <point x="255" y="804" type="line"/>
      <point x="99" y="804" type="line"/>
      <point x="99" y="738" type="line"/>
      <point x="255" y="738" type="line"/>
      <point x="255" y="66" type="line"/>
      <point x="104" y="66" type="line"/>
      <point x="104" y="0" type="line"/>
      <point x="531" y="0" type="line"/>
      <point x="531" y="66" type="line"/>
      <point x="348" y="66" type="line"/>
      <point x="348" y="738" type="line"/>
      <point x="836" y="739" type="line"/>
      <point x="836" y="66" type="line"/>
      <point x="687" y="66" type="line"/>
      <point x="687" y="0" type="line"/>
      <point x="1116" y="0" type="line"/>
      <point x="1116" y="66" type="line"/>
      <point x="926" y="66" type="line"/>
      <point x="926" y="739" type="line"/>
    </contour>
  </outline>
</glyph>
<glyph name="uniFB01" format="1">
  <advance width="1097"/>
  <unicode hex="FB01"/>
  <outline>
    <contour>
      <point x="110" y="0" type="line"/>
      <point x="547" y="0" type="line"/>
      <point x="547" y="66" type="line"/>
      <point x="355" y="66" type="line"/>
      <point x="355" y="738" type="line"/>
      <point x="840" y="738" type="line"/>
      <point x="840" y="66" type="line"/>
      <point x="689" y="66" type="line"/>
      <point x="689" y="0" type="line"/>
      <point x="1078" y="0" type="line"/>
      <point x="1078" y="66" type="line"/>
      <point x="929" y="66" type="line"/>
      <point x="929" y="804" type="line"/>
      <point x="355" y="804" type="line"/>
      <point x="355" y="936" type="line" smooth="yes"/>
      <point x="355" y="1092"/>
      <point x="469" y="1171"/>
      <point x="646" y="1171" type="curve" smooth="yes"/>
      <point x="715" y="1171"/>
      <point x="809" y="1154"/>
      <point x="837" y="1108" type="curve"/>
      <point x="814" y="1100"/>
      <point x="805" y="1078"/>
      <point x="805" y="1057" type="curve" smooth="yes"/>
      <point x="805" y="1021"/>
      <point x="836" y="995"/>
      <point x="879" y="995" type="curve" smooth="yes"/>
      <point x="922" y="995"/>
      <point x="949" y="1024"/>
      <point x="949" y="1066" type="curve" smooth="yes"/>
      <point x="949" y="1166"/>
      <point x="820" y="1230"/>
      <point x="649" y="1230" type="curve" smooth="yes"/>
      <point x="422" y="1230"/>
      <point x="265" y="1129"/>
      <point x="265" y="935" type="curve" smooth="yes"/>
      <point x="265" y="804" type="line"/>
      <point x="105" y="804" type="line"/>
      <point x="105" y="738" type="line"/>
      <point x="265" y="738" type="line"/>
      <point x="265" y="66" type="line"/>
      <point x="110" y="66" type="line"/>
    </contour>
  </outline>
</glyph>
<glyph name="uniFB03" format="1">
  <advance width="1870"/>
  <unicode hex="FB03"/>
  <outline>
    <contour>
      <point x="169" y="0" type="line"/>
      <point x="601" y="0" type="line"/>
      <point x="601" y="66" type="line"/>
      <point x="413" y="66" type="line"/>
      <point x="413" y="738" type="line"/>
      <point x="838" y="738" type="line"/>
      <point x="838" y="804" type="line"/>
      <point x="413" y="804" type="line"/>
      <point x="413" y="999" type="line" smooth="yes"/>
      <point x="413" y="1097"/>
      <point x="510" y="1155"/>
      <point x="654" y="1155" type="curve" smooth="yes"/>
      <point x="749" y="1155"/>
      <point x="867" y="1118"/>
      <point x="962" y="1053" type="curve"/>
      <point x="1019" y="1077" type="line"/>
      <point x="917" y="1168"/>
      <point x="770" y="1218"/>
      <point x="645" y="1218" type="curve" smooth="yes"/>
      <point x="458" y="1218"/>
      <point x="323" y="1135"/>
      <point x="323" y="995" type="curve" smooth="yes"/>
      <point x="323" y="804" type="line"/>
      <point x="165" y="804" type="line"/>
      <point x="165" y="738" type="line"/>
      <point x="323" y="738" type="line"/>
      <point x="323" y="66" type="line"/>
      <point x="169" y="66" type="line"/>
    </contour>
    <component base="uniFB01" xOffset="659"/>
  </outline>
</glyph>
<glyph name="uniFB04" format="1">
  <advance width="1839"/>
  <unicode hex="FB04"/>
  <outline>
    <contour>
      <point x="91" y="0" type="line"/>
      <point x="537" y="0" type="line"/>
      <point x="537" y="66" type="line"/>
      <point x="338" y="66" type="line"/>
      <point x="338" y="738" type="line"/>
      <point x="774" y="738" type="line"/>
      <point x="774" y="804" type="line"/>
      <point x="338" y="804" type="line"/>
      <point x="338" y="992" type="line" smooth="yes"/>
      <point x="338" y="1092"/>
      <point x="441" y="1149"/>
      <point x="589" y="1149" type="curve" smooth="yes"/>
      <point x="692" y="1149"/>
      <point x="819" y="1108"/>
      <point x="909" y="1041" type="curve"/>
      <point x="973" y="1070" type="line"/>
      <point x="866" y="1165"/>
      <point x="712" y="1218"/>
      <point x="582" y="1218" type="curve" smooth="yes"/>
      <point x="388" y="1218"/>
      <point x="248" y="1132"/>
      <point x="248" y="989" type="curve" smooth="yes"/>
      <point x="248" y="804" type="line"/>
      <point x="90" y="804" type="line"/>
      <point x="90" y="738" type="line"/>
      <point x="248" y="738" type="line"/>
      <point x="248" y="66" type="line"/>
      <point x="91" y="66" type="line"/>
    </contour>
    <component base="uniFB02" xOffset="619"/>
  </outline>
</glyph>
<glyph name="uniFB04" format="1">
  <advance width="1780"/>
  <unicode hex="FB04"/>
  <outline>
    <contour>
      <point x="97" y="0" type="line"/>
      <point x="494" y="0" type="line"/>
      <point x="494" y="45" type="line"/>
      <point x="308" y="45" type="line"/>
      <point x="308" y="759" type="line"/>
      <point x="739" y="759" type="line"/>
      <point x="739" y="804" type="line"/>
      <point x="308" y="804" type="line"/>
      <point x="308" y="1004" type="line" smooth="yes"/>
      <point x="308" y="1105"/>
      <point x="408" y="1166"/>
      <point x="564" y="1166" type="curve" smooth="yes"/>
      <point x="663" y="1166"/>
      <point x="790" y="1126"/>
      <point x="890" y="1061" type="curve"/>
      <point x="918" y="1095" type="line"/>
      <point x="810" y="1167"/>
      <point x="671" y="1211"/>
      <point x="558" y="1211" type="curve" smooth="yes"/>
      <point x="371" y="1211"/>
      <point x="248" y="1132"/>
      <point x="248" y="1000" type="curve" smooth="yes"/>
      <point x="248" y="804" type="line"/>
      <point x="92" y="804" type="line"/>
      <point x="92" y="759" type="line"/>
      <point x="248" y="759" type="line"/>
      <point x="248" y="45" type="line"/>
      <point x="97" y="45" type="line"/>
    </contour>
    <contour>
      <point x="680" y="0" type="line"/>
      <point x="1101" y="0" type="line"/>
      <point x="1101" y="45" type="line"/>
      <point x="903" y="45" type="line"/>
      <point x="903" y="759" type="line"/>
      <point x="1116" y="759" type="line"/>
      <point x="1116" y="804" type="line"/>
      <point x="903" y="804" type="line"/>
      <point x="903" y="965" type="line" smooth="yes"/>
      <point x="903" y="1107"/>
      <point x="1030" y="1194"/>
      <point x="1220" y="1194" type="curve" smooth="yes"/>
      <point x="1355" y="1194"/>
      <point x="1441" y="1165"/>
      <point x="1441" y="1119" type="curve" smooth="yes"/>
      <point x="1441" y="45" type="line" smooth="yes"/>
      <point x="1441" y="38"/>
      <point x="1447" y="0"/>
      <point x="1454" y="0" type="curve" smooth="yes"/>
      <point x="1702" y="0" type="line"/>
      <point x="1702" y="45" type="line"/>
      <point x="1500" y="45" type="line"/>
      <point x="1500" y="1118" type="line" smooth="yes"/>
      <point x="1500" y="1195"/>
      <point x="1390" y="1242"/>
      <point x="1221" y="1242" type="curve" smooth="yes"/>
      <point x="996" y="1242"/>
      <point x="843" y="1136"/>
      <point x="843" y="957" type="curve" smooth="yes"/>
      <point x="843" y="804" type="line"/>
      <point x="675" y="804" type="line"/>
      <point x="675" y="759" type="line"/>
      <point x="843" y="759" type="line"/>
      <point x="843" y="45" type="line"/>
      <point x="680" y="45" type="line"/>
    </contour>
  </outline>
</glyph>
<glyph name="caron.alt" format="1">
  <advance width="600"/>
  <outline>
    <contour>
      <point x="193" y="804" type="move" name="_caron.alt"/>
    </contour>
    <contour>
      <point x="304" y="897" type="line"/>
      <point x="402" y="896"/>
      <point x="416" y="976"/>
      <point x="415" y="1064" type="curve" smooth="yes"/>
      <point x="415" y="1174" type="line"/>
      <point x="317" y="1174" type="line"/>
      <point x="317" y="1077" type="line"/>
      <point x="374" y="1077" type="line"/>
      <point x="374" y="993"/>
      <point x="372" y="927"/>
      <point x="304" y="923" type="curve"/>
    </contour>
  </outline>
</glyph>
<glyph name="f_j" format="1">
  <advance width="1112"/>
  <outline>
    <contour>
      <point x="929" y="804" type="line"/>
      <point x="355" y="804" type="line"/>
      <point x="355" y="936" type="line" smooth="yes"/>
      <point x="355" y="1092"/>
      <point x="469" y="1171"/>
      <point x="646" y="1171" type="curve" smooth="yes"/>
      <point x="715" y="1171"/>
      <point x="809" y="1154"/>
      <point x="837" y="1108" type="curve"/>
      <point x="814" y="1100"/>
      <point x="805" y="1078"/>
      <point x="805" y="1057" type="curve" smooth="yes"/>
      <point x="805" y="1021"/>
      <point x="836" y="995"/>
      <point x="879" y="995" type="curve" smooth="yes"/>
      <point x="922" y="995"/>
      <point x="949" y="1024"/>
      <point x="949" y="1066" type="curve" smooth="yes"/>
      <point x="949" y="1166"/>
      <point x="820" y="1230"/>
      <point x="649" y="1230" type="curve" smooth="yes"/>
      <point x="422" y="1230"/>
      <point x="265" y="1129"/>
      <point x="265" y="935" type="curve" smooth="yes"/>
      <point x="265" y="804" type="line"/>
      <point x="105" y="804" type="line"/>
      <point x="105" y="738" type="line"/>
      <point x="265" y="738" type="line"/>
      <point x="265" y="66" type="line"/>
      <point x="110" y="66" type="line"/>
      <point x="110" y="0" type="line"/>
      <point x="547" y="0" type="line"/>
      <point x="547" y="66" type="line"/>
      <point x="355" y="66" type="line"/>
      <point x="355" y="738" type="line"/>
      <point x="837" y="738" type="line"/>
      <point x="837" y="-31" type="line" smooth="yes"/>
      <point x="837" y="-147"/>
      <point x="833" y="-201"/>
      <point x="702" y="-201" type="curve" smooth="yes"/>
      <point x="630" y="-201" type="line"/>
      <point x="630" y="-271" type="line"/>
      <point x="709" y="-271" type="line" smooth="yes"/>
      <point x="939" y="-271"/>
      <point x="929" y="-126"/>
      <point x="929" y="-10" type="curve" smooth="yes"/>
    </contour>
  </outline>
</glyph>
<glyph name="ff" format="1">
  <advance width="1239"/>
  <outline>
    <contour>
      <point x="672" y="0" type="line"/>
      <point x="1073" y="0" type="line"/>
      <point x="1073" y="45" type="line"/>
      <point x="882" y="45" type="line"/>
      <point x="882" y="760" type="line"/>
      <point x="1114" y="760" type="line"/>
      <point x="1114" y="805" type="line"/>
      <point x="882" y="805" type="line"/>
      <point x="882" y="1030" type="line" smooth="yes"/>
      <point x="882" y="1106"/>
      <point x="935" y="1147"/>
      <point x="982" y="1147" type="curve" smooth="yes"/>
      <point x="1032" y="1147"/>
      <point x="1087" y="1133"/>
      <point x="1098" y="1040" type="curve"/>
      <point x="1141" y="1058" type="line"/>
      <point x="1130" y="1167"/>
      <point x="1052" y="1195"/>
      <point x="981" y="1195" type="curve" smooth="yes"/>
      <point x="905" y="1195"/>
      <point x="823" y="1137"/>
      <point x="823" y="1025" type="curve" smooth="yes"/>
      <point x="823" y="805" type="line"/>
      <point x="510" y="805" type="line"/>
      <point x="510" y="760" type="line"/>
      <point x="823" y="760" type="line"/>
      <point x="823" y="45" type="line"/>
      <point x="672" y="45" type="line"/>
    </contour>
    <component base="f"/>
  </outline>
</glyph>
<glyph name="lc_xheight_curved_stem" format="1">
  <advance width="1151"/>
  <outline>
    <contour>
      <point x="708" y="0" type="line"/>
      <point x="1094" y="0" type="line"/>
      <point x="1094" y="45" type="line"/>
      <point x="941" y="45" type="line"/>
      <point x="941" y="578" type="line"/>
      <point x="941" y="732"/>
      <point x="843" y="826"/>
      <point x="695" y="826" type="curve" smooth="yes"/>
      <point x="593" y="826"/>
      <point x="449" y="772"/>
      <point x="318" y="689" type="curve"/>
      <point x="318" y="646" type="line"/>
      <point x="462" y="727"/>
      <point x="603" y="778"/>
      <point x="685" y="778" type="curve" smooth="yes"/>
      <point x="806" y="778"/>
      <point x="882" y="708"/>
      <point x="882" y="594" type="curve" smooth="yes"/>
      <point x="882" y="45" type="line"/>
      <point x="708" y="45" type="line"/>
    </contour>
  </outline>
</glyph>
